<?xml version="1.0" encoding="utf-8"?>
<!-- Generator: Adobe Illustrator 16.0.4, SVG Export Plug-In . SVG Version: 6.00 Build 0)  -->
<!DOCTYPE svg PUBLIC "-//W3C//DTD SVG 1.1//EN" "http://www.w3.org/Graphics/SVG/1.1/DTD/svg11.dtd">
<svg version="1.1" id="Layer_1" xmlns="http://www.w3.org/2000/svg" xmlns:xlink="http://www.w3.org/1999/xlink" x="0px" y="0px"
	 width="89px" height="98px" viewBox="0 0 89 98" enable-background="new 0 0 89 98" xml:space="preserve">
<path d="M67.834,61.659c0,8.88-6.046,14.359-15.871,14.359H30.991V46.543h20.783C61.598,46.543,67.834,52.968,67.834,61.659z
	 M48.185,21.981c8.312,0,10.392,6.066,10.392,9.278c0,6.802-5.291,10.372-11.903,10.372H30.991v-19.65H48.185z M52.152,43.332
	c4.723,0,11.336-4.137,11.336-12.073c0-6.99-5.101-14.189-15.304-14.189H18.71c-1.322,0-2.456,1.134-2.456,2.457
	c0,1.511,1.134,2.455,2.456,2.455h7.369v54.037H18.71c-1.322,0-2.456,1.133-2.456,2.456c0,1.511,1.134,2.456,2.456,2.456h33.253
	c12.469,0,20.782-7.747,20.782-19.271c0-9.637-6.244-19.66-20.981-19.66L52.152,43.332z"/>
</svg>
