<?xml version="1.0" encoding="utf-8"?>
<!-- Generator: Adobe Illustrator 16.0.4, SVG Export Plug-In . SVG Version: 6.00 Build 0)  -->
<!DOCTYPE svg PUBLIC "-//W3C//DTD SVG 1.1//EN" "http://www.w3.org/Graphics/SVG/1.1/DTD/svg11.dtd">
<svg version="1.1" id="Layer_1" xmlns="http://www.w3.org/2000/svg" xmlns:xlink="http://www.w3.org/1999/xlink" x="0px" y="0px"
	 width="800px" height="444.5px" viewBox="0 0 800 444.5" enable-background="new 0 0 800 444.5" xml:space="preserve">
<g>
	<path d="M650.856,310.419c-0.957-1.826-1.906-2.738-3.812-3.653c-3.804-1.836-16.181,33.852-55.202,33.852
		c-14.411,0-3.099-41.381-2.609-41.355c12.46,5.693,35.982,10.813,45.249-10.027c10.517-23.655-4.567-42.854-25.509-42.854
		c-15.938,0-42.852,16.498-50.924,51.4c-7.01,30.426-3.679,60.234,24.273,61.125C628.01,359.824,651.807,312.256,650.856,310.419z
		 M606.116,259.187c5.383-0.266,5.971,8.304,3.311,15.396c-6.205,16.846-17.019,13.533-17.019,13.533
		C595.314,269.788,603.526,260.021,606.116,259.187z"/>
	<path d="M363.489,105.561c57.323-9.426,129.442-20.59,173.25-25.925l-20.991,87.742c-7.087,8.252-15.027,14.17-26.319,14.17
		c-11.262,0-14.781-16.278-9.063-37.485c7.354-28.27,13.077-36.127,15.526-36.916c4.899,0,1.638,10.998,0.822,12.566
		c-3.273,8.638-3.273,16.494,8.169,18.853c4.086,0.785,9.801,0,13.072-9.422c6.542-17.277-1.631-32.99-19.61-32.99
		c-18.793,0-37.588,14.921-43.312,42.412c-3.315,13.546-4.31,27.866-1.294,38.802c-0.021,0.055,0.19,0.727,0.637,1.803
		c-2.775,6.865-6.827,14.797-14.025,14.797c-3.813,0-4.554-6.802-0.854-20.959c5.617-22.168,14.501-59.272,16.388-68.44
		l-26.911,4.496l-14.793,63.108c-0.669,3.536-1.096,6.46-1.34,8.929c-3.146,5.078-5.482,7.887-6.792,7.445
		c-2.212-0.745-2.212-4.475-1.477-8.943l9.328-35.771c4.916-17.232-5.383-36.412-28.528-29.365c-15.545,4.981-8.5,7.385-2.625,15.26
		c4.38,5.868,7.576,16.244,3.155,30.359l-6.958,25.355c-3.882,17.228-2.135,28.574,12.592,28.574
		c7.027,0,15.69-12.475,21.588-22.215c0.289,1.352,0.653,2.479,0.995,3.602c0.027,0.087,0.043,0.171,0.062,0.254
		c2.096,5.578,6.44,8.929,13.574,9.773c17.72,2.511,27.613-7.418,32.619-16.132c4.515,5.604,11.405,10.79,20.923,9.424
		c18.831-2.701,23.69-8.34,30.833-16.41l-2.168,9.078l26.319-4.256c1.004-3.861,19.705-80.951,19.705-80.951
		c11.479-11.304,20.697-15.675,11.06,9.701c-2.33,6.136-16.761,53.646-17.761,57.98c-9.829,42.522,19.95,59.457,32.075,67.597
		l4.792-6.729c-23.65-25.57-9.383-57.769,7.276-107.344c6.947-20.673,19.877-51.309-10.727-48.227
		c-6.556,0.66-16.472,8.992-23.885,14.974l4.261-16.452c24.674-3.692,35.362-13.408,37.977-29.565
		c2.046-12.635-5.53-28.145-24.202-28.145c-13.952,0.001-28.695,8.937-32.656,26.69c0,0-82.462,10.123-155.109,19.202
		c-71.225,8.901-60.911,54.083-60.911,54.083C337.489,111.106,347.787,108.142,363.489,105.561z M579.769,33.725
		c4.822,0,5.503,3.122,4.979,5.342c-1.656,6.947-15.292,6.722-15.292,6.722C571.251,37.753,573.766,33.725,579.769,33.725z"/>
	<path d="M533.36,256.652c-0.904-0.848-2.667-1.639-4.416-2.429c-13.883-2.827-27.017,8.455-27.976,22.646
		c-0.535,22.14,12.761,30.299,13.128,53.26c0.104,16.134-17.817,21.827-25.228,14.482c-0.116-1.601-0.237-3.327-0.364-5.132
		c9.599-4.439,15.156-12.949,15.517-21.205c0.574-5.342,0.303-10.631-5.025-13.897c-5.316-3.267-10.405-2.113-14.498,1.629
		c-7.42,5.687-10.424,13.797-12.518,22.747c-2.007,9.075-0.193,18.15,4.248,25.312c-2.695,5.051-6.351,9.349-11.72,9.349
		c-3.911,0-4.672-6.972-0.879-21.487c6.476-25.534,15.954-72.831,15.954-74.681l-27.811,4.646l-14.103,69.182
		c-0.487,2.585-0.85,4.852-1.109,6.858c-4.294,7.396-7.451,11.701-9.066,11.155c-2.271-0.764-2.271-4.591-1.517-9.169l10.795-44.048
		c5.038-17.667-5.518-37.332-29.251-30.104c-15.936,5.107-8.715,7.569-2.689,15.645c4.491,6.016,7.765,16.651,3.234,31.125
		l-8.365,33.366c-3.981,17.661-1.592,28.104,13.508,28.104c7.858,0,17.223-14.242,23.115-24.242c0.314,2.066,0.816,3.6,1.285,5.126
		c0.028,0.086,0.046,0.173,0.06,0.26c2.149,5.72,6.606,9.77,13.918,10.635c16.141,2.285,25.949-5.929,31.539-14.093
		c6.386,5.257,12.896,6.2,14.962,6.398c27.617,3.003,50.503-18.503,50.71-46.811c0.105-14.15-5.729-27.107-12.418-40.027
		C532.536,273.49,529.55,265.684,533.36,256.652z"/>
	<path d="M372.115,281.251c-24.71,0-42.503,23.528-49.423,57.754c-3.95,23.526,2.966,55.619,28.662,55.619
		c20.761,0,41.522-12.833,47.453-65.241C402.765,306.923,394.851,281.251,372.115,281.251z M369.457,332.959
		c-4.429,21.178-7.902,37.053-14.365,36.692c-5.159-0.292-5.153-12.073,0.16-37.482c5.435-27.55,11.314-40.071,15.191-39.854
		C378.184,292.748,372.94,317.094,369.457,332.959z"/>
	<path d="M240.777,255.073c25.108-0.645,49.876-14.554,67.56-48.545c4.111,10.955,11.947,19.101,24.558,19.101
		c19.684,0,39.367-12.166,44.996-61.858c3.747-21.297-3.756-45.636-25.312-45.636c-23.431,0-40.3,22.308-46.861,54.758
		c-0.635,3.777-0.973,7.785-0.982,11.838c-16.351,40.562-30.74,51.829-54.115,52.429c-20.588,0.528-11.709-54.884,2.031-94.576
		c9.98-28.953,18.834-43.896,28.021-44.131c14.214-0.027,13.121,14.717,8.382,28.479c-4.141,12.955-5.442,19.611,5.852,18.982
		c12.237,0.024,24.419-12.797,23.784-27.836c-0.255-19.523-9.454-34.003-35.317-33.677c-29.077,0.745-52.199,19.734-66.52,58.365
		C200.671,183.258,194.45,256.263,240.777,255.073z M336.583,166.413c5.154-26.119,10.726-37.993,14.403-37.787
		c7.344,0.411,2.371,23.494-0.932,38.536c-4.198,20.081-7.494,35.133-13.622,34.793
		C331.542,201.678,331.548,190.509,336.583,166.413z"/>
	<path d="M296.102,405.87L296.102,405.87L296.102,405.87z"/>
	<path d="M331.35,255.702c6.679,5.421,25.182,17.749,64.938,10.578c18.843-3.398,84.966-18.185,111.241-21.848
		c27.863-3.886,40.109,7.401,40.109,7.401c5.95-24.776-13.458-47.234-49.586-40.116c-15.908,3.041-101.489,21.109-132.334,26.465
		c-24.205,4.203-41.164-4.294-47.822-3.945c-10.471,0.455-11.289,8.041-11.077,11.662l-14.241,60.613
		c-10.271,3.87-29.526,11.022-29.606,11.046c3.774-16.424,10.148-41.863,12.533-52.798c0,0,0.091-10.993-15.631-5.223
		c-7.624,2.72-11.315,8.628-12.614,14.863c-2.121,11.665-8.001,19.587-20.186,23.952c-3.145,0.765-7.377-4.365-5.865-15.909
		c1.484-12.52-25.488-16.829-28.116,1.986c-2.689,18.046,15.964,31.487,34.722,23.176c4.298-1.873,8.696-5.069,13.941-8.109
		c-1.754,6.847-5.562,20.733-7.16,27.072c-34.721,12.561-76.208,21.677-76.208,59.754c0,25.601,21.399,39.969,40.725,39.969
		c23.205,0,41.004-11.759,47.364-38.659c0.141-0.599,5.013-20.474,12.602-53.013l29.688-11.894l-20.086,85.48
		c0,0-0.442,10.463,14.711,5.479c2.925-0.934,7.05-4.057,12.708-7.815c0.004-0.016,14.084-62.296,14.109-62.292
		C314.207,327.164,325.361,280.674,331.35,255.702z M218.366,390.041c-6.688,22.822-28.257,10.291-27.383-8.654
		c2.914-24.771,24.467-30.79,39.214-36.936C227.345,355.697,221.092,380.737,218.366,390.041z"/>
</g>
</svg>
