<?xml version="1.0" encoding="utf-8"?>
<!-- Generator: Adobe Illustrator 16.0.4, SVG Export Plug-In . SVG Version: 6.00 Build 0)  -->
<!DOCTYPE svg PUBLIC "-//W3C//DTD SVG 1.1//EN" "http://www.w3.org/Graphics/SVG/1.1/DTD/svg11.dtd">
<svg version="1.1" id="Layer_1" xmlns="http://www.w3.org/2000/svg" xmlns:xlink="http://www.w3.org/1999/xlink" x="0px" y="0px"
	 width="67px" height="98px" viewBox="0 0 67 98" enable-background="new 0 0 67 98" xml:space="preserve">
<g>
	<g>
		<path d="M50.188,26.339c-3.64-5.612-9.761-8.949-16.472-8.949c-6.702,0-12.831,3.339-16.472,8.949
			c-3.928,1.341-6.346,3.16-6.346,5.165c0,0.95,0.546,1.857,1.537,2.693l6.495,50.739l0.075-0.009
			c0.215,3.468,6.705,6.251,14.684,6.251c7.975,0,14.46-2.779,14.685-6.244l0.01,0.001l6.509-50.652
			c1.055-0.858,1.642-1.797,1.642-2.78C56.535,29.499,54.116,27.68,50.188,26.339z M13.975,31.173c0-1.394,2.411-2.241,5.182-3.244
			l6.456,4.06c1.758-2.822,4.788-4.504,8.104-4.504c3.341,0,6.38,1.702,8.134,4.552l6.797-4.107
			c2.733,1.001,4.917,1.861,4.917,3.244c0,3.222-8.862,5.833-19.795,5.833C22.837,37.006,13.975,34.396,13.975,31.173z"/>
		<path d="M33.716,15.047c7.627,0,14.599,3.867,18.65,10.342l8.558-5.354c-5.908-9.444-16.08-15.084-27.208-15.084
			c-11.128,0-21.299,5.64-27.208,15.084l8.559,5.354C19.118,18.914,26.09,15.047,33.716,15.047z"/>
	</g>
</g>
</svg>
