<?xml version="1.0" encoding="utf-8"?>
<!-- Generator: Adobe Illustrator 16.0.4, SVG Export Plug-In . SVG Version: 6.00 Build 0)  -->
<!DOCTYPE svg PUBLIC "-//W3C//DTD SVG 1.1//EN" "http://www.w3.org/Graphics/SVG/1.1/DTD/svg11.dtd">
<svg version="1.1" id="Layer_1" xmlns="http://www.w3.org/2000/svg" xmlns:xlink="http://www.w3.org/1999/xlink" x="0px" y="0px"
	 width="800px" height="558px" viewBox="0 26.7 800 558" enable-background="new 0 26.7 800 558" xml:space="preserve">
<g>
	<path d="M653.336,31.347c6.33-0.226,13.234,2.537,17.907,5.189c5.909,3.353,11.036,6.577,14.8,11.847
		c5.256,7.363,8.674,18.153,5.503,31.062c-1.203,4.897-3.005,10.353-4.771,14.648c-1.677,4.073-4.232,6.836-7.076,10.241
		c-1.918,2.3-3.632,4.69-5.351,6.04c-1.027,0.809-3.047,1.359-4.404,2.303c-2.373,1.646-3.953,3.974-6.079,5.498
		c-6.401,4.587-15.416,7.313-23.476,10.176c-10.703,3.8-23.946,5.259-37.203,7.215c-21.976,3.239-42.536,8.61-63.066,14.747
		c-1.633,0.486-7.443,2.304-8.041-0.657c-0.469-2.315,3.174-3.635,3.991-4.088c8.592-4.776,20.066-5.774,29.966-8.842
		c2.082-0.644,3.894-1.501,5.902-1.974c2.039-0.479,4.226-0.459,6.607-0.929c5.294-1.047,11.07-3.078,17.368-4.175
		c6.419-1.117,12.735-1.564,17.834-3.394c5.24-1.882,10.405-3.734,14.967-6.564c8.656-5.382,15.531-10.364,21.396-19.113
		c2.155-3.215,5.699-8.866,6.436-12.546c2.097-10.495-3.52-20.325-10.44-23.234c-1.819-0.766-3.77-1.005-5.498-1.034
		c-2.652-0.044-5.321,1.589-8.118,0.854c-3.798-0.998-4.812-8.027-4.416-12.585c0.594-6.788,4.856-11.763,8.827-14.95
		C641.595,33.312,646.009,31.609,653.336,31.347z"/>
	<path d="M572.539,48.684c-6.856-7.146-23.903-8.842-29.336-1.292c-5.205,7.23-1.853,16.08,1.814,21.628
		c2.619,3.962,6.515,6.589,7.594,11.238c1.831,7.894-2.298,16.577-5.276,21.401c-2.943,4.77-4.999,8.097-8.016,11.858
		c-3.126,3.898-6.066,6.949-9.325,10.16c-1.214,1.974-2.504,4.883-0.727,6.69c0.869,0.882,2.077,1.121,3.336,1.035
		c9.021-6.717,17.486-14.208,25.375-22.153c2.422-2.432,4.584-5.604,6.78-8.467c2.319-3.022,4.863-6.023,6.602-9.006
		C578.203,80.036,580.635,57.124,572.539,48.684z"/>
	<path d="M343.36,83.809c-1.407-1.52-0.873-4.873-2.641-6c-2.098-1.338-5.553-0.34-8.88-0.48c-2.602-0.109-5.927-0.514-7.2,0.48
		c-1.741,1.361-1.68,6.449-1.68,9.119c0,1.715,0.283,5.965,0.959,6.961c2.938,4.324,17.502-0.979,20.641,2.16
		c1.796,1.795,1.003,7.004,0,7.92c-1.458,1.33-7.508,0.721-10.319,0.721c-3.763,0-8.15-0.555-9.84,0.959
		c-1.971,1.766-1.104,5.93-0.96,9.359c0.097,2.303-0.262,5.672,0.479,6.961c1.119,1.943,5.631,1.807,8.881,1.68
		c2.724-0.105,8.89,0.23,10.08-0.959c1.527-1.529-0.062-4.156,1.439-6c2.791-1.223,7.137-1.59,8.641,0.479
		c1.037,1.43,0.479,5.654,0.479,7.441c0,2.15,0.294,6.178-0.479,7.199c-1.588,2.096-16.25,1.199-21.84,1.199
		c-4.611,0-8.95,0-15.121,0c-3.33,0-9.231,0.66-10.799-0.719c-1.963-1.727-0.931-6.15,0-7.68c1.283-0.887,5.137-0.232,6.239-1.682
		c1.132-1.486,0.96-9.346,0.96-12.238c0-6.484-0.013-17.328,0-25.201c0.004-3.002-0.087-6.723-1.439-7.92
		c-1.279-1.131-5.25-0.682-6-1.68c-0.834-1.35-1.517-6.328,0.479-7.68c1.277-0.865,5.316-0.553,6.72-0.721
		c5.38-0.646,11.431,0.24,19.681,0.24c5.993,0,17.019-1.189,19.2,0.721c1.413,1.236,1.889,12.461,0.24,14.639
		C349.794,85.053,346.172,84.795,343.36,83.809z"/>
	<path d="M465.521,132.289c-7.269,0.711-17.889,1.439-24.961,0c-1.282-1.738-1.282-5.941,0-7.68c1.368-0.973,5.382-0.293,6.48-1.92
		c0.73-1.084,0.255-3.793,0.239-6c-0.015-2.014,0.505-4.07,0.479-6.24c-0.017-1.414-0.474-2.885-0.479-4.32
		c-0.031-6.705,0.873-15.846,0.479-21.84c-0.182-2.768-0.869-6.008-2.16-6.721c-1.822-1.006-7.524-0.943-9.359,0.24
		c-2.496,1.609-0.767,4.943-2.159,7.92c-1.337,1.365-5.96,1.244-7.921,0.48c-1.291-1.943-1.199-5.271-1.199-9.121
		c0-3.127-0.477-7.775,1.199-8.879c1.062-0.699,2.914-0.191,4.801-0.24c11.719-0.303,27.01,0.279,38.16-0.24
		c2.844-0.133,9.577-0.809,11.279,0.721c1.578,1.416,1.667,15.643,0,17.52c-1.291,1.453-7.04,1.646-8.399,0
		c-1.443-1.746,0.104-5.717-1.681-7.68c-1.604-1.766-7.812-1.793-9.84-0.721c-2.373,1.256-2.262,6.041-2.16,9.359
		c0.29,9.479,0.265,19.096,0.479,29.762c0.065,3.223-0.227,5.721,0.96,6.719c1.334,1.123,3.992-0.184,5.761,1.439
		C467.393,126.566,466.521,129.914,465.521,132.289z"/>
	<path d="M407.44,68.449c0.745,2.271,1.744,4.396,0.479,6.959c-0.769,1.557-3.356,1.672-3.84,3.359
		c-0.896,3.131,2.084,8.123,3.6,11.521c3.378,7.572,4.56,14.053,7.92,22.32c1.093,2.684,2.533,9.162,4.561,10.559
		c1.498,1.033,4.525,0.682,5.28,1.68c0.588,2.285,1.688,5.744-0.24,7.441c-1.819,1.6-7.218,0.719-11.521,0.719
		c-2.8,0-9.162,0.658-10.8-1.199c-1.219-1.383-1.233-4.98-0.24-6.48c1.073-1.619,3.609-0.82,4.32-2.639
		c-0.465-4.336-1.494-8.107-3.84-10.561c-5.341-0.26-10.793-1.355-16.08-0.721c-3.764,0.453-4.304,2.576-5.521,6.24
		c-0.421,1.266-1.488,3.09-0.96,4.561c0.619,1.725,3.801,1.84,4.561,3.119c1.209,2.039,0.609,5.988-0.48,6.961
		c-1.631,1.453-8.015,0.719-11.04,0.719c-2.697,0-9.312,0.822-11.039-0.719c-1.496-1.334-1.052-5.1-0.24-7.201
		c1.106-1.096,3.731-1,5.04-1.92c2.229-1.568,3.259-7.43,4.56-10.559c1.537-3.695,2.935-7.445,4.08-10.801
		c1.266-3.701,2.088-7.262,3.841-11.279c1.364-3.127,4.201-8.09,3.601-11.281c-0.455-2.414-3.822-2.34-4.561-4.08
		c-1.205-2.842-0.047-7.043,2.4-7.439C388.608,66.543,400.655,68.137,407.44,68.449z M388.721,94.609
		c-0.951,3.098-1.854,6.51-0.721,7.68c1.321,1.359,8.912,1.445,10.561,0.479c2.962-1.734,0.194-6.844-0.72-10.559
		c-0.867-3.521-0.889-9.271-4.08-8.641C390.908,84.133,389.865,90.879,388.721,94.609z"/>
	<path d="M637.939,91.048c-0.604-9.839-7.655-19.873-20.023-19.113c-12.017,0.733-19.822,9.791-27.014,17.037
		c-2.91,2.932-22.448,23.57-31.837,29.929c-4.558,3.086,0.332,8.322,4.886,6.143c-0.047,0.092,25.97-19.919,26.95-20.647
		c4.303-3.194,11.519-8.921,16.673-9.698c5.746-0.868,10.538,2.326,11.468,6.325c0.541,2.331-0.82,6.172,0.743,8.085
		c2.595,3.168,9.476,0.258,11.87-1.704C635.851,103.964,638.343,97.637,637.939,91.048z"/>
	<path d="M297.796,280.129c5.095,0.393,9.042-2.727,12.72-4.801c9.259-5.221,19.984-10.688,21.359-24.721
		c0.28-2.854-0.26-6.893,1.681-7.439c2.797-0.787,4.469,3.344,5.28,4.801c3.479,6.238,6.541,14.871,3.6,23.039
		c-1.383,3.844-5.055,8.818-7.92,11.52c-2.534,2.391-6.434,5.273-10.08,7.682c-7.333,4.842-14.008,8.861-22.561,12.719
		c-3.848,1.735-9.919,3.303-11.279,6.239c-0.839,1.812-1.057,5.474-1.439,8.16c-1.15,8.053-2.977,17.105-3.121,24.48
		c-0.052,2.676-0.578,5.479-0.719,8.4c-0.132,2.711-0.785,5.521-1.201,8.16c-3.436,21.821-10.445,39.662-20.16,55.199
		c-4.631,7.406-9.601,15.203-16.56,21.121c-3.415,2.902-6.005,6.666-9.36,9.357c-7.068,5.674-14.59,10.631-22.56,15.121
		c-6.136,3.455-12.173,5.881-20.159,8.16c-2.316,0.66-4.442,2.012-6.721,2.639c-7.521,2.072-15.692,3.078-24.24,3.84
		c-2.828,0.252-5.287-0.395-8.4-0.479c-4.035-0.111-7.432,0.627-11.039,0.238c-3.307-0.354-6.507-1.191-9.84-1.68
		c-16.734-2.449-30.799-8.125-42.24-16.08c-6.346-4.41-12.648-7.992-18-14.16c-1.539-1.771-2.671-4.178-4.32-6
		c-7.982-8.812-13.199-22.098-13.199-38.398c0-18.787,7.678-34.309,16.079-45.842c1.288-1.768,3.528-3.119,5.28-5.039
		c1.729-1.896,3.166-4.139,4.8-5.521c2.079-1.759,4.99-3.056,7.44-5.039c6.519-5.281,15.923-9.472,27.119-10.32
		c6.586-0.5,17.152,0.771,21.84,2.642c2.543,1.014,4.711,2.896,6.24,5.52c1.42,2.436,3.003,5.889,3.121,8.641
		c0.101,2.373-1.322,7.08-2.16,8.881c-3.518,7.55-14.595,11.146-22.08,7.199c-2.552-1.346-5.99-3.844-7.44-6.479
		c-1.197-2.177,0.008-4.623-2.88-6.72c-4.28-0.571-6.184,2.998-8.16,5.521c-1.973,2.517-4.232,4.789-6,7.438
		c-3.537,5.306-7.506,11.148-9.6,17.521c-4.474,13.613-5.037,33.017,0.479,46.319c0.954,2.301,2.911,4.834,4.56,7.201
		c4.348,6.236,9.313,10.047,15.841,14.398c3.899,2.602,8.329,3.889,12.96,5.521c4.488,1.582,9.209,3.361,14.88,3.84
		c5.464,0.461,11.528,1.504,17.28,1.199c13.58-0.719,27.002-6.762,35.52-13.199c2.516-1.902,4.988-3.406,6.96-5.281
		c2.078-1.975,3.537-4.406,5.521-6.719c10.945-12.768,18.857-29.822,24.959-48c3.051-9.086,5.593-18.336,8.16-28.32
		c0.408-1.584,0.939-3.098,1.44-4.561c0.601-1.75,0.628-3.226,0.96-5.039c0.716-3.91,3.621-10.229,2.16-15.361
		c-3.154-0.938-6.594,0.654-9.6,1.68c-6.162,2.103-10.934,3.758-18.24,6.24c-2.291,0.779-7.961,1.887-8.4,3.6
		c-0.495,1.937,2.509,4.404,3.36,5.763c1.468,2.338,2.933,4.149,3.36,6.239c2.382,11.654-7.693,21.506-18.24,19.199
		c-8.796-1.924-14.064-8.525-12.961-18.721c0.164-1.512,1.186-2.732,1.681-4.559c0.483-1.787,0.167-3.773,0.72-5.281
		c0.383-1.043,1.312-2.096,1.92-3.119c1.801-3.037,3.664-6.648,6-9.121c3.234-3.422,6.381-7.355,9.84-10.08
		c6.119-4.816,14.277-9.018,22.32-12.721c4.068-1.871,8.131-3.025,12.48-5.039c1.555-0.721,3.747-1.717,6.24-2.4
		c3.336-0.912,6.115-1.143,7.199-4.08c0.915-2.477,1.16-5.758,1.68-8.641c1.51-8.367,3.608-17.365,5.521-25.199
		c1.924-7.883,4.36-15.996,7.2-23.52c0.941-2.494,1.735-5.049,2.641-7.441c0.644-1.703,2.104-2.811,2.639-4.318
		c0.448-1.262,0.293-2.846,0.721-4.32c1.324-4.57,3.942-9.436,6-13.92c0.836-1.822,1.93-4.221,3.12-6.721
		c1.122-2.355,3.033-5.357,2.88-6.959c-0.328-3.42-8.844-5.332-11.76-6.48c-9.549-3.764-15.613-7.318-25.44-10.561
		c-2.266-0.746-4.761-1.287-6.96-2.16c-2.184-0.865-4.065-2.256-6-2.879c-4.81-1.549-10.362-2.779-15.84-4.08
		c-5.369-1.275-11.382-2.402-17.04-2.641c-12.093-0.51-22.756,1.91-31.92,6.721c-1.689,0.887-3.747,2.725-5.761,4.08
		c-2.758,1.854-5.8,2.637-7.439,4.799c-1.047,1.383-1.678,3.361-2.88,5.041c-6.304,8.809-11.082,19.666-12.72,33.84
		c-0.123,1.061-0.246,2.346-0.48,3.359c-0.234,1.013-1.215,2.424-0.96,3.359c0.692,2.551,0.27,4.611,0.479,7.201
		c0.181,2.211,0.863,4.66,1.201,6.719c1.502,9.172,5.195,15.957,9.6,22.561c4.174,6.26,9.631,10.723,18.24,12.961
		c4.27,1.109,13.299,0.67,15.84-2.641c1.404-1.832,1.786-5.172,2.4-7.199c2.246-7.426,7.264-14.211,14.399-17.281
		c3.336-1.436,11.675-1.207,15.84,1.201c7.832,4.527,4.849,17.293,0.24,22.318c-7.276,7.939-19.301,12.064-33.12,14.641
		c-12.584,2.346-30.347,1.822-41.76-2.4c-8.711-3.223-16.248-7.459-22.561-13.199c-9.883-8.988-17.203-23.023-18.479-40.801
		c-1.252-17.441,3.399-34.201,10.079-46.078c1.141-2.027,2.521-3.98,3.601-6c1.15-2.154,2.323-4.162,3.601-5.762
		c2.91-3.643,5.484-7.686,8.64-10.559c6.627-6.035,13.354-11.35,21.84-16.08c2.139-1.193,4.203-1.994,6.72-2.881
		c2.271-0.799,4.32-2.129,6.48-2.879c34.148-11.875,70.296,2.254,93.6,15.359c3.221,1.811,5.934,4.018,9.36,5.52
		c3.294,1.445,6.108,3.639,9.12,5.52c6.068,3.795,12.289,7.41,18.48,11.041c6.339,3.717,13.045,6.574,20.159,9.359
		c7.189,2.814,14.727,4.961,22.32,7.199c7.822,2.307,17.399,2.512,26.641,2.881c9.476,0.379,18.971-0.564,27.84-1.199
		c8.4-0.604,15.99-3.434,23.279-6.24c3.53-1.361,6.354-3.471,9.841-5.041c3.523-1.586,7.563-3,9.84-4.799
		c2.729-2.158,5.192-4.645,8.16-6.721c2.88-2.016,5.637-4.006,8.159-6.48c2.534-2.482,5.411-4.486,7.921-6.959
		c7.298-7.191,13.078-15.719,21.119-23.041c6.947-6.324,19.224-13.74,30-7.199c6.311,3.83,13.835,17.328,7.681,27.6
		c-3.562,5.947-11.29,9.643-17.76,13.68c-19.212,11.994-40.929,21.908-64.561,29.52c-8.335,2.686-16.264,5.064-24.479,6.961
		c-20.04,4.625-47.903,6.773-69.841,1.92c-3.741-0.828-9.755-3.162-12.72-2.4c-4.176,1.074-7.173,12.516-9.12,16.32
		c-0.729,1.426-1.863,2.664-2.399,4.08c-5.2,13.707-10.423,27.727-14.159,42.721C298.409,273.363,296.723,276.785,297.796,280.129z"
		/>
	<path d="M465.28,371.568c10.801-1.558,19.971,5.754,16.08,16.562c-2.205,6.127-7.533,12.215-12.239,16.32
		c-5.106,4.455-10.802,8.143-17.04,11.52c-6.632,3.592-13.827,5.078-21.841,6.721c-12.999,2.664-25.312,3.799-40.08,2.16
		c-2.637-0.293-8.937-1.006-10.08,0c-1.334,1.174-0.238,5.496-0.479,8.16c-0.265,2.93-1.335,7.07-2.159,8.4
		c-2.924,4.707-14.239,8.174-22.08,5.52c-9.436-3.195-14.241-16.826-8.399-27.84c6.672-12.58,27.49-12.387,44.64-10.561
		c3.021,0.32,6.064,0.613,8.881,0.959c1.172,0.145,2.24,0.812,3.359,0.961c4.102,0.535,8.462,0.514,12.479,0.721
		c4.42,0.227,8.752,0.525,12.721,0.479c7.944-0.09,15.514-2.27,21.359-4.318c2.738-0.961,6.158-2.721,8.399-4.08
		c1.547-0.938,5.918-3.512,6-6c0.062-1.869-2.318-2.817-3.84-4.319c-1.215-1.201-2.966-3.556-3.36-4.562
		c-0.812-2.078-1.624-6.229-1.199-8.641c0.449-2.562,5.073-7.898,8.399-8.16C464.958,371.557,465.124,371.592,465.28,371.568z"/>
	<path d="M364,546.135c2.054-0.766,7.675-1.98,9.36-0.24c2.043,2.109,0.218,10.369-0.479,11.76
		c-3.557,7.098-15.615,9.826-25.68,9.602c-11.921-0.268-21.414-7.586-25.92-13.682c-1.997-2.699-3.516-5.459-4.32-8.158
		c-3.812-12.771-0.29-26.342,5.76-33.121c2.888-3.234,6.817-5.646,11.279-7.92c8.737-4.451,23.354-4.85,33.36,0.961
		c3.561,2.066,9.28,10.035,4.319,15.84c-3.17,3.707-11.333,2.764-13.199-1.201c-0.832-1.766-0.14-4.631-1.199-6.719
		c-0.974-1.914-4.869-2.742-6.722-2.881c-9.895-0.74-16.299,4.195-19.92,9.359c-1.081,1.543-2.437,3.078-2.88,4.32
		c-1.592,4.459-1.566,10.994-0.479,15.84c1.188,5.311,4.86,10.049,8.158,12.721c3.059,2.477,8.215,5.318,15.602,4.801
		c3.598-0.254,9.604-0.795,11.52-4.32C363.646,551.098,362.719,549.137,364,546.135z"/>
	<path d="M145.121,545.895c1.765,5.637,1.047,8.924-0.48,11.76c-1.705,3.168-6.525,6.143-9.84,7.441
		c-11.264,4.41-27.006,1.656-35.04-5.041c-1.513-1.26-2.49-2.797-3.841-4.32c-1.329-1.5-2.906-2.678-3.84-4.08
		c-3.711-5.58-5.362-14.598-4.799-20.639c0.866-9.305,5.5-17.682,11.76-22.801c5.125-4.191,11.586-6.744,20.16-7.199
		c9.512-0.506,15.557,1.631,20.879,5.52c1.779,1.301,3.857,2.92,4.561,4.561c1.356,3.162,0.303,8.705-1.2,10.32
		c-3.376,3.629-11.089,2.281-12.96-1.441c-0.979-1.949-0.354-6.092-1.68-7.68c-2.183-2.611-11.788-1.904-15.36-0.721
		c-3.108,1.031-5.46,2.637-7.2,4.08c-1.881,1.562-5.5,5.43-6.479,8.16c-1.74,4.852-1.603,11.117-0.72,15.361
		c1.56,7.504,8.043,14.053,13.439,16.559c5.859,2.723,19.094,2.855,22.08-3.119c0.781-1.564-0.047-4.969,1.68-6.48
		C138.086,544.522,143.625,545.563,145.121,545.895z"/>
	<path d="M266.32,501.256c13.899-1.229,24.229,3.854,30.48,11.52c3.939,4.83,7.586,13.469,6.96,22.799
		c-0.768,11.445-6.315,20.074-13.44,25.201c-13.254,9.537-30.771,7.564-42.24-2.4c-6.593-5.729-11.334-15.592-10.08-28.561
		c0.71-7.326,4.545-15.301,9.121-19.439c1.367-1.238,4.001-2.527,6.479-4.32C257.219,503.438,260.716,501.75,266.32,501.256z
		 M250.24,524.776c-2.603,7.307-1.259,15.393,1.44,20.4c5.323,9.873,18.605,15.918,29.521,9.359
		c4.675-2.811,9.827-9.516,11.039-15.359c2.02-9.734-2.295-18.242-6.479-22.32c-3.643-3.551-10.597-6.754-18-5.76
		C258.156,512.385,252.178,519.338,250.24,524.776z"/>
	<path d="M414.641,501.256c2.879-0.275,7.683-0.535,10.561,0c2.399,0.445,5.488,1.777,8.16,2.879
		c10.239,4.227,16.889,12.662,18.721,25.68c1.615,11.486-3.779,23.875-12.48,30.24c-7.953,5.82-20.194,9.709-31.439,5.52
		c-1.377-0.512-2.616-1.553-4.079-2.398c-1.401-0.811-3.137-1.354-4.32-2.16c-1.265-0.859-2.539-2.604-4.08-4.08
		c-2.832-2.715-5.908-5.67-7.199-9.84c-0.576-1.865-0.263-3.525-0.721-6c-0.525-2.848-2.021-5.316-1.92-8.641
		c0.083-2.766,1.523-5.461,2.399-8.4c0.471-1.576,0.45-3.41,0.961-4.799c1.438-3.924,6.621-10.113,11.279-12.721
		c0.979-0.547,2.281-0.688,3.359-1.199c2.054-0.977,3.604-2.518,5.28-3.121C410.626,501.674,412.431,501.465,414.641,501.256z
		 M401.681,519.975c-1.171,1.689-2.466,2.943-3.12,4.561c-1.202,2.973-1.479,6.965-1.438,10.32c0.062,5.283,1.479,7.225,3.6,10.799
		c1.273,2.148,2.604,4.348,4.08,5.762c5.962,5.703,16.175,7.791,24.24,3.84c3.638-1.783,8.29-7.74,10.319-12.479
		c2.104-4.916,2.171-12.812,0.239-17.762c-3.101-7.943-11.183-14.961-21.6-14.16C409.686,511.495,405.13,515,401.681,519.975z"/>
	<path d="M184.721,502.456c1.088,1.572,1.002,5.844,0,7.438c-1.88,1.328-4.137,0.15-5.76,1.441c-1.654,1.312-1.2,5.066-1.2,7.68
		c0,3.443-0.784,6.225,0.239,8.16c1.527,2.887,8.717,1.92,13.92,1.92c3.691,0,11.932,1.387,14.641-0.961
		c1.869-1.619,1.199-4.533,0.96-7.68c-0.232-3.066,0.524-7.354-0.96-8.881c-1.297-1.334-3.666-0.344-5.76-1.68
		c-0.928-1.857-1.705-6.109,0.24-7.439c1.09-0.746,5.992-0.84,8.399-0.961c4.456-0.221,14.593-0.527,16.08,0.961
		c1.729,1.729,0.665,5.297,0,7.439c-0.593,0.971-4.19,0.529-5.521,1.441c-2.16,1.479-1.121,5.117-1.199,8.16
		c-0.185,7.188-0.389,18.512,0,27.357c0.154,3.525-0.323,7.92,0.48,9.119c1.102,1.646,5.035,1.008,6.239,2.16
		c0.539,2.555,1.471,5.527,0,7.201c-1.673,1.9-8.468,0.959-12.72,0.959c-5.348,0-10.146,0.355-12.48-0.959
		c-0.895-1.896-0.539-5.727,0.48-7.201c2.029-1.213,4.684-0.266,6-1.92c1.418-1.781,1.458-14.002,0.24-16.08
		c-1.369-2.334-7.969-1.604-11.76-1.439c-7.008,0.311-13.393-1.215-17.281,1.199c-0.47,1.879-0.239,4.906-0.239,7.92
		c0,2.932-0.479,6.254,0.479,7.92c1.284,2.23,3.746,1.102,6.24,2.16c1.186,1.689,1.563,5.691,0.48,7.201
		c-1.542,2.148-8.527,1.199-12.721,1.199c-5.46,0-10.404,0.408-12.72-0.959c-0.339-1.996-0.194-4.148,0.96-5.762
		c1.307-1.826,4.137-1.707,5.28-3.359c1.689-2.441,1.136-13.613,0.96-18c-0.283-7.088-0.042-13.293-0.24-18
		c-0.129-3.049,0.26-6.957-0.96-8.4c-1.131-1.338-3.95-1.5-5.04-2.396c-0.11-1.781-0.204-4.43,0-6.24
		C166.287,500.54,177.71,501.346,184.721,502.456z"/>
	<path d="M642.881,519.735c-1.845,1.254-6.87,2.01-8.4,0.24c-1.243-1.438-0.152-4.818-0.96-6.719
		c-1.302-3.072-9.946-3.055-11.52-0.721c-1.001,1.484-0.396,4.305-0.48,6.721c-0.263,7.371-0.182,17.908,0,27.119
		c0.063,3.223-0.444,7.305,0.24,8.881c1.008,2.316,5.363,1.461,6.72,3.119c1.831,2.24,0.474,4.906,0,6.961
		c-3.669,1.449-8.586,1.078-13.199,0.959c-4.105-0.107-9.012,0.643-12.239-0.959c-0.349-2.256-1.321-5.373,0.479-7.201
		c1.341-1.359,4.911-0.711,6-1.92c1.359-1.51,1.001-12.17,0.96-16.08c-0.088-8.441-0.197-14.234-0.239-20.639
		c-0.021-3.35,0.477-6.504-1.439-7.684c-1.837-1.127-7.823-0.939-9.36,0.24c-2.5,1.924-0.561,5.086-1.92,7.92
		c-1.771,1.324-7.142,1.459-8.88,0c-0.175-3.178-2.184-15.758,0.721-17.76c1.688-1.164,8.533-0.59,11.279-0.48
		c9.344,0.375,21.864-0.184,31.92-0.238c3.219-0.018,9.018,0.139,10.08,1.682c1.063,1.541,0.942,6.805,0.96,9.119
		C643.622,515.176,643.423,517.168,642.881,519.735z"/>
	<path d="M700.001,502.456c1.458,3.645,1.696,11.465,0.239,15.119c-2.178,0.639-5.995,1.594-7.92,0.238
		c-1.475-1.033-0.809-4.875-2.641-6c-2.045-1.254-6.629-0.545-9.84-0.479c-1.656,0.033-3.482-0.615-5.04,0
		c-3.038,1.199-1.941,5.57-1.92,8.879c0.013,1.91-0.935,6.73,1.2,8.16c3.729,2.498,16.685-1.805,19.92,1.199
		c1.639,1.523,0.997,6.555,0,8.16c-2.659,1.107-6.176,0.721-9.841,0.721c-3.366,0-8.044-0.863-10.079,0.48
		c-2.015,1.328-1.2,5.672-1.2,8.4c0,3.434-0.317,6.719,0.72,8.639c4.501,1.064,13.756,1.805,18.24-0.24
		c0.986-1.492,0.357-4.602,1.439-6c2.128-0.988,7.515-1.361,8.88,0.24c1.056,1.238,0.558,3.684,0.479,5.521
		c-0.11,2.641,0.727,8.379-0.72,9.84c-1.454,1.467-8.027,0.959-11.521,0.959c-8.336,0-16.652-0.197-24.721-0.24
		c-4.32-0.023-8.479,0.609-11.04-0.719c-0.596-2.117-1.192-6.414,0.48-7.684c1.062-0.803,4.569-0.076,5.76-0.959
		c1.47-1.09,1.264-11.936,1.439-15.119c0.207-3.75-0.626-8.029-0.479-12c0.083-2.271,0.568-4.473,0.479-6.48
		c-0.146-3.289,0.243-9.299-0.96-11.041c-1.221-1.768-5.463-1.268-6.239-1.92c-1.791-1.504-1.14-6.586,0-7.92
		C669.422,502.145,685.857,500.792,700.001,502.456z"/>
	<path d="M489.28,502.456c0.514,2.666,1.157,6.045,0,7.68c-1.229,1.738-3.577,0.363-5.521,1.68c-1.691,1.148-1.207,4.611-1.2,7.682
		c0.013,5.566-0.223,13.754-0.239,20.398c-0.01,3.637-0.762,12.996,0.721,15.361c1.197,1.912,16.503,2.711,18.239,0.24
		c1.282-1.824-0.41-6.791,1.2-8.4c1.212-1.213,6.927-1.309,8.399,0c1.424,1.264,1.676,16.443,0,18.24
		c-1.531,1.641-7.521,0.959-11.28,0.959c-4.596,0-8.553,0-12,0c-8.396,0-16.704,0.684-23.279-0.959
		c-0.81-1.744-0.658-5.461,0.239-6.961c1.295-1.111,5.147-0.703,6.24-2.4c0.876-1.359,0.247-5.543,0.24-8.4
		c-0.021-8.344,0.6-18.334,0.239-26.879c-0.114-2.73,0.281-6.229-0.479-7.68c-1.076-2.051-4.997-1.744-6.24-2.881
		c-0.84-1.549-0.542-5.283-0.239-7.199c2.715-1.873,8.706-1.201,14.399-1.201C482.74,501.735,486.79,501.252,489.28,502.456z"/>
	<path d="M567.041,502.696c0.998,2.574,1.688,3.84,0.96,6.238c-0.562,1.85-3.327,2.502-3.601,4.32
		c-0.238,1.588,1.414,4.326,2.159,6.719c3.155,10.123,6.68,18.523,10.08,28.32c0.897,2.586,2.016,7.285,3.601,8.4
		c1.549,1.088,4.212,0.721,5.04,1.68c1.021,1.182,1.007,5.621,0.239,6.721c-1.439,2.066-7.214,1.199-11.279,1.199
		c-3.479,0-9.476,0.951-11.279-0.959c-1.325-1.404-0.741-5.045,0-6.961c1.206-1.033,3.557-0.924,4.319-2.4
		c-0.584-4.455-1.767-8.311-4.801-10.318c-5.217,1.029-12.244-1.484-17.04,0.238c-1.636,0.59-2.491,2.521-3.119,4.08
		c-0.531,1.318-1.985,3.688-1.439,5.521c0.613,2.061,3.531,1.082,4.561,3.119c0.421,1.666,0.355,4.803,0,6.48
		c-1.447,1.662-3.806,1.033-6.24,0.959c-5.603-0.168-12.723,1.021-16.319-0.959c-0.506-2.422-0.336-6.041,0.96-7.441
		c5.141,0.674,5.602-2.809,6.96-6.959c0.864-2.639,1.669-4.828,2.399-6.48c2.03-4.592,2.93-9.223,4.561-13.199
		c1.081-2.637,2.46-5.045,3.36-8.641c0.728-2.908,3.028-6.955,2.64-9.119c-0.363-2.023-2.852-2.059-3.601-3.84
		c-1.059-2.518-0.396-4.471,0.24-6.721C547.912,501.321,559.422,501.813,567.041,502.696z M557.921,525.735
		c-0.695-2.707-1.606-7.037-4.08-7.439c-2.112,1.949-3.047,5.348-4.08,8.881c-0.796,2.719-2.229,5.814-1.2,8.16
		c2.547,1.379,9.626,1.668,11.521-0.48C560.188,532.079,558.766,529.03,557.921,525.735z"/>
	<path d="M537.235,170.693c-1.306,4.351-2.272,10.733-2.394,16.734c-0.253,12.754,0.284,26.904-0.717,40.884
		c-0.109,1.489-0.652,2.868-0.718,4.304c-0.265,5.816,0.577,11.868,0.236,17.932c-0.802,14.479-0.646,27.274-1.432,41.121
		c-0.252,4.404,0.096,9.426-0.24,14.105c-0.37,5.156-0.983,10.267-0.479,13.627c0.23,1.533,1.987,2.955,1.673,4.783
		c-0.393,2.323-6.393,3.545-9.083,4.305c-7.596,2.14-12.413,4.373-18.888,7.41c-2.841,1.332-6.254,3.478-9.806,2.394
		c-0.691-2.129,1.027-3.185,0.721-5.738c-0.284-2.34-3.392-4.953-5.021-7.174c-5.168-7.037-10.76-13.687-16.258-20.082
		c-3.387-3.939-6.428-8.84-10.758-13.629c-1.658-1.834-3.771-3.879-5.74-6.456c-1.7-2.222-6.316-9.863-7.648-3.344
		c-0.819,4.004-0.645,8.129-0.717,11.952c-0.282,14.337-0.676,31.089-1.436,44.472c-0.1,1.772-0.673,4.108-0.718,5.498
		c-0.056,1.649,0.326,3.559,0.238,5.022c-0.2,3.373-0.963,6.541,0,10.039c0.397,1.438,2.631,3.035,2.392,4.78
		c-0.29,2.117-7.234,4.156-9.563,5.019c-7.827,2.908-12.86,5.871-20.079,9.091c-3.264,1.452-6.767,3.641-10.761,2.868
		c-0.046-3.075,2.74-4.479,3.346-6.937c1.201-4.86,0.426-11.344,0.718-16.496c0.088-1.516,0.854-2.944,0.957-4.303
		c0.12-1.645-0.381-3.346-0.237-5.021c0.104-1.258,0.599-2.549,0.717-3.826c0.18-1.952-0.293-3.946-0.241-5.978
		c0.213-8.241,1.295-17.215,1.913-26.299c0.224-3.242-0.033-6.729,0.241-10.042c0.379-4.646,0.413-8.662,0.478-13.39
		c0.03-2.387,0.809-4.796,0.956-7.171c0.215-3.398,0.188-6.863,0.236-10.281c0.056-3.426,0.702-6.698,0.958-10.04
		c0.284-3.669,0.07-7.421,0.24-10.998c0.22-4.6,0.566-8.611,0.718-13.151c0.045-1.324,0.711-2.738,0.717-4.062
		c0.019-4.029-1.366-7.378-2.152-10.519c4.945-3.647,11.288-4.257,16.735-6.935c5.284-2.599,10.83-5.312,17.215-6.217
		c-1.165,6.422,4.347,9.881,7.893,13.629c1.428,1.51,2.825,3.118,4.063,4.543c1.438,1.658,2.146,3.463,3.344,5.021
		c0.938,1.219,3.85,2.889,4.785,3.825c1.052,1.054,1.801,2.479,2.869,3.585c3.022,3.14,5.727,6.003,9.082,9.564
		c1.729,1.83,3.446,4.389,5.978,6.692c1.847,1.681,4.39,6.269,6.692,5.737c1.236-0.282,1.86-3.771,1.914-6.693
		c0.108-6.085-0.26-13.634,0.238-19.125c0.256-2.826,0.454-3.874,0.24-6.935c-0.221-3.142,0.411-6.682,0.477-10.042
		c0.094-4.642-0.36-9.602,0-14.344c0.386-5.057,0.895-10.271,0.241-14.106c-0.243-1.421-1.429-3.257-1.196-4.543
		c0.304-1.689,6.146-4.675,7.651-5.257c2.263-0.878,4.788-1.082,7.171-1.914c6.05-2.115,12.792-6.015,18.887-7.891
		C534.714,170.438,535.564,170.188,537.235,170.693z"/>
	<path d="M644.748,179.85c-2.112,0.922-3.952-0.952-5.963-1.264c-2.673-0.417-5.979,0.174-9.089,0.134
		c-8.365-0.116-20.669,1.768-29.434,2.999c-4.936,0.693-14.413,1.892-15.841,5.075c-1.083,2.427-0.637,8.726-0.612,11.709
		c0.017,2.212-0.771,9.393,0.828,11.006c1.31,1.32,4.925,0.078,6.942-0.634c2.578-0.914,4.569-1.357,7.189-1.828
		c4.409-0.801,12.814-2.896,15.545-0.056c1.289,1.337,1.451,7.416,1.798,9.82c0.909,6.374,2.755,12.085,0.261,18.415
		c-4.632-0.653-10.26-2.945-16.714-1.869c-3.088,0.518-4.804,1.639-7.92,2.777c-2.104,0.768-6.475,1.774-7.213,3.261
		c-1.285,2.595-0.479,9.601-0.633,13.146c-0.2,4.683,0.466,9.436,0.324,13.149c-0.104,2.811-0.984,4.957,0.877,6.948
		c7.526-0.149,15.785-2.466,24.669-3.54c4.022-0.483,8.291-1.166,12.454-1.765c4.576-0.66,8.271-0.704,11.744-2.494
		c2.918-1.505,4.842-3.905,7.939-4.45c1.604,3.928,1.222,8.571,1.521,13.167c0.512,7.843,2.494,15.897,1.39,24.167
		c-9.246,1.613-17.862,0.035-27.264,0.637c-18.721,1.201-34.714,8.016-49.417,14.01c-3.229,1.314-6.427,3.195-9.618,4.67
		c-3.104,1.43-6.064,4.326-9.845,3.469c0.606-3.881,3.106-5.539,3.469-10.479c0.696-9.424,0.024-20.389,0.127-31.317
		c0.094-9.732,0.979-19.486,0.817-28.923c-0.103-5.929,1.471-13.04,1.414-18.635c-0.02-1.572-0.836-3.133-0.902-4.79
		c-0.153-3.861,0.29-8.338,0.39-12.669c0.208-9.322,0.403-18.668,0.796-27.249c0.085-1.882-0.464-3.703-0.412-5.503
		c0.08-2.938,1.276-6.047,0.814-8.358c-0.578-2.887-3.913-3.41-3.76-5.781c0.151-2.357,5.943-3.278,9.377-4.435
		c16.904-5.689,41.693-8.602,63.706-10.014c3.555-0.227,7.431-2.252,10.53-0.832c3.039,1.391,4.318,9.661,5.584,13.217
		C642.335,169.557,645.982,174.39,644.748,179.85z"/>
	<path d="M403.817,228.317c0.241,1.92-2.14,2.78-2.63,4.064c-0.869,2.269-0.486,6.067-0.479,9.324
		c0.014,3.829-1.007,7.747-1.195,10.759c-0.227,3.639,0.19,7.414,0,11.234c-0.128,2.603-0.789,5.209-0.952,7.893
		c-1.202,19.321-3.417,40.167-4.784,59.289c-0.146,2.066-0.002,4.201-0.239,6.218c-0.215,1.812-0.862,3.534-0.955,5.262
		c-0.081,1.49,0.367,3.058,0.237,4.543c-0.097,1.121-0.587,2.142-0.719,3.347c-0.145,1.354,0.283,2.785,0.239,4.303
		c-0.112,4.111-0.63,8.814-0.956,13.391c-0.342,4.809-1.058,10.023-0.478,13.627c0.247,1.531,2.45,3.357,2.149,5.262
		c-0.383,2.426-7.215,3.07-9.563,3.822c-7.402,2.375-13.399,3.713-20.798,5.738c-3.388,0.928-7.025,2.355-10.521,1.674
		c-0.239-2.492,2.923-3.879,3.588-5.498c0.733-1.795,0.485-5.094,0.718-8.129c0.39-5.141,1.465-12.195,1.912-17.693
		c0.351-4.305,0.031-8.551,0.478-12.192c0.178-1.437,1.113-2.826,1.193-4.063c0.086-1.259-0.521-2.543-0.478-3.822
		c0.055-1.476,0.783-2.816,0.957-4.305c0.305-2.628-0.193-5.441,0-8.13c1.486-20.778,3.926-43.957,5.26-63.835
		c0.177-2.626-0.188-5.161,0-7.651c0.252-3.344,1.856-6.681,1.912-9.804c0.021-1.149-0.676-2.616-0.717-4.063
		c-0.086-2.989,0.961-6.185,0.717-8.363c-0.26-2.323-1.961-2.799-2.389-5.023c10.199-4.478,25.376-2.762,36.341-6.934
		C402.141,228.373,402.823,228.245,403.817,228.317z"/>
	<path d="M735.95,359.381c-1.676-4.146-3.638-8.213-6.249-11.781c-1.25-1.709-2.043-3.779-3.366-5.529
		c-4.101-5.424-7.3-10.207-12.506-14.672c-3.443-2.949-6.474-6.309-9.856-8.418c-9.598-5.971-20.453-10.195-34.63-11.539
		c-7.552-0.717-15.444-1.016-22.122,0c-6.307,0.959-13.465,1.488-19.235,3.127c-6.445,1.83-12.824,4.209-18.516,6.01
		c-7.229,2.285-13.2,5.305-19.237,8.416c-5.996,3.094-12.434,6.012-17.794,9.623c-1.854,1.24-3.159,3.402-5.053,4.324
		c-1.422,0.695-3.827,1.092-5.29,1.924c-2.708,1.545-4.72,4.49-7.694,6.256c-3.029,1.793-6.017,3.263-8.656,5.287
		c-5.247,4.029-10.611,8.096-15.631,12.266c-5.02,4.169-10.374,8.15-15.388,12.507c-10.173,8.821-20.473,16.448-30.78,25.005
		c-12.777,10.604-26.181,20.604-40.879,28.854c-3.051,1.715-5.935,3.877-8.896,5.291c-5.209,2.482-11.062,4.283-16.833,6.973
		c-5.584,2.605-11.659,4.088-17.792,6.016c-1.942,0.604-3.645,1.854-5.776,2.4c-15.136,3.887-39.33,7.197-54.583,1.203
		c-6.507-2.557-13.169-5.592-18.035-10.1c-1.22-1.131-6.763-5.592-6.251-7.936c0.487-2.25,4.979-1.99,7.455-2.889
		c6.318-2.287,12.086-8.596,13.224-15.627c1.807-11.141-4.539-19.404-11.301-23.806c-7.542-4.909-19.973-3.407-28.135,0.24
		c-15.581,6.958-26.851,26.403-20.68,48.089c2.131,7.484,7.655,14.145,12.986,19c5.623,5.119,12.908,9.043,20.199,11.783
		c15.911,5.979,34.224,9.309,55.788,7.453c11.934-1.023,22.754-4.609,32.704-7.217c6.279-1.641,12.22-4.156,17.552-6.49
		c7.456-3.258,13.968-7.422,20.922-11.061c3.461-1.809,6.671-3.988,9.858-6.254c3.062-2.17,6.298-5.049,10.338-5.289
		c1.121,3.045-0.479,4.699-0.719,7.215c-1.135,11.797,5.868,20.916,14.665,23.566c12.122,3.646,22.58-3.598,25.974-10.582
		c5.821-11.994,0.784-28.963-15.148-27.412c-4.695,0.455-6.719,3.371-11.302,3.848c0.076-3.854,3.492-6.404,5.529-9.137
		c10.422-14.016,24.218-25.199,37.513-36.068c2.598-2.127,5.632-4.078,8.173-6.494c2.349-2.225,5.916-5.096,9.38-5.049
		c-0.043,5.945-2.9,11.006-4.327,16.592c-2.309,9.031-2.037,20.627,0.242,29.094c0.8,2.986,2.32,5.535,3.363,8.42
		c0.657,1.822,0.903,3.65,1.683,5.289c2.911,6.092,6.857,10.445,11.304,15.148c11.043,11.684,30.93,18.492,50.5,10.34
		c5.541-2.311,12.521-4.684,12.262-12.023c-3.071-1.562-6.129,0.125-8.657,0.723c-3.14,0.738-6.866,1.67-10.103,1.684
		c-15.174,0.047-28.623-8.295-36.068-17.797c-1.227-1.57-2.821-3.279-3.604-4.807c-1.729-3.379-3.937-9.084-4.812-12.984
		c-2.104-9.373-1.547-19.777,1.205-29.096c4.705-15.965,16.31-31.01,27.411-41.121c1.86-1.695,3.01-4.045,4.568-5.289
		c1.35-1.078,3.181-1.734,4.569-2.887c1.988-1.652,3.446-3.828,5.29-5.052c4.021-2.672,9.02-5.103,14.186-7.454
		c14.537-6.617,32.6-12.695,50.498-14.425c21.296-2.062,39.389,2.39,51.461,12.021c2.783,2.222,6.138,5.238,8.896,7.453
		c1.09,0.873,2.515,1.631,3.125,2.404c0.934,1.18,1.476,3.244,2.646,4.809c1.086,1.451,2.654,2.746,3.366,4.09
		c0.815,1.539,1.188,3.396,2.166,5.052c6.308,10.666,10.757,25.618,9.619,42.08c-0.396,5.655-2.83,13.229-4.812,17.556
		c-4.071,8.908-10.606,15.215-18.034,20.678c-1.556,1.146-2.887,2.559-4.087,3.127c-9.282,4.398-25.271,7.432-37.271,3.365
		c-6.088-2.062-11.168-6.498-14.909-11.305c-2.243-2.865-5.448-5.924-4.33-10.574c0.896-0.244,1.657-0.281,2.338-0.191
		c0.814-0.836,1.987-1.357,3.55-1.271c7.098,0.396,14.926,0.021,21.44-3.127c3.868-1.873,5.476-5.168,7.214-8.611
		c0.717-2.965,1.743-5.867,1.769-9.166c0.038-5.115-1.767-10.092-4.327-14.426c-2.163-3.654-5.627-8.164-8.9-9.621
		c-2.394-1.061-4.814-0.682-6.671-2.516c-0.319-0.088-0.642-0.186-0.961-0.283c-1.411,0.109-2.79,0.229-4.085,0.297
		c-3.474,0.186-6.949,0.418-10.418,0.691c-5.414,4.295-11.163,6.371-15.612,10.951c-1.121,1.151-1.915,2.813-2.887,4.088
		c-1.071,1.398-2.31,2.514-3.129,3.848c-7.618,12.434-9.565,29.992-2.403,43.041c0.841,1.533,2.431,3.043,3.848,4.811
		c1.383,1.723,2.356,3.873,3.606,5.293c3.107,3.521,7.773,7.09,12.265,9.619c4.634,2.607,10.501,5.391,16.111,6.01
		c12.145,1.348,22.768,0.77,32.943-2.645c8.99-3.02,17.5-7.699,23.806-13.705c1.259-1.201,2.211-2.844,3.366-4.088
		c5.096-5.5,9.109-10.207,12.984-18.037C741.713,401.297,743.537,378.127,735.95,359.381z"/>
	<path d="M694.942,374.391c-3.531-7.184-10.857-13.215-18.591-16.387c-1.438-0.588-3.229-1.076-4.792-1.396
		c-7.358-1.51-16.081-1.78-23.184-0.2c-2.379,0.524-4.87,0.723-7.194,1.396c-2.591,0.752-5.507,2.313-8.392,3.397
		c-2.857,1.076-5.579,2.279-7.994,3.795c-4.978,3.142-10.128,5.969-14.188,9.597c-6.471,5.771-12.007,13.45-15.385,21.979
		c-0.504,1.266-0.92,2.744-1.097,4.145c-2.715,6.254-3.105,13.998,1.44,19.34c0.854,1.012,1.403,6.436,2.473,5.705
		c0.536,5.439,6.507-4.092,5.9-6.357c-2.082-7.812-5.355-6.18-0.896-22.066c3.594-8.383,8.33-13.979,15.359-19.752
		c4.691-3.851,10.383-7.795,15.585-9.789c1.888-0.721,4.451-1.338,6.791-2.199c2.306-0.842,4.834-2.135,6.6-2.395
		c0.877-0.136,2.125,0.108,2.997,0c3.055-0.394,6.058-1.228,9.418-1.627c0.244-0.052,0.498-0.078,0.766-0.078
		c1.978-0.191,4.079-0.211,6.401,0.104c0.949,0.131,1.903,0.769,3.014,1.135c2.206,0.021,4.396,0.216,6.438,0.783
		c1.484,0.416,2.371,1.334,2.76,2.42c1.057,0.562,2.023,1.14,2.776,1.654c3.007,2.071,7.293,7.584,8.993,10.793
		c2.562,4.825,4.194,13.973,1.998,19.983c-0.77,2.098-2.072,4.293-3.718,6.252c1.031,0.924,1.696,2.242,1.653,3.695
		c-0.009,0.229-0.043,0.455-0.062,0.684c1.827-1.996,3.315-4.197,4.521-6.436C699.496,394.846,699.223,383.118,694.942,374.391z"/>
	<path d="M707.074,371.706c-3.142-7.927-8.078-15.076-14.898-20.4c-1.499-1.168-3.49-1.916-5.273-3.207
		c-1.681-1.219-2.998-2.721-4.812-3.668c-3.76-1.969-8.577-3.822-13.071-4.127c-1.037-0.074-2.185,0.338-3.205,0.229
		c-1.458-0.162-2.914-1.234-4.586-1.607c-1.699-0.375-3.719-0.684-5.505-0.688c-4.673-0.012-9.105,1.893-13.524,2.523
		c-1.772,0.252-3.5-0.08-5.498,0.225c-3.893,0.607-7.775,1.738-11.006,2.984c-3.231,1.246-5.914,3.615-9.169,5.045
		c-1.191,0.523-3.868,1.268-5.501,2.061c-4.614,2.242-9.906,5.828-14.672,9.629c-2.109,1.685-4.116,3.433-6.419,5.73
		c-1.176,1.176-2.627,2.57-3.588,4.074c-1.104,1.336-2.096,2.756-3.021,4.232c-3.712,4.196-7.183,8.778-7.639,13.95
		c-0.099,1.125,0.399,1.884,1.128,2.283c0.435,1.854,3.035,2.729,4.615,1.28c4.664-4.272,8.207-9.78,10.426-15.692
		c1.422-0.937,2.827-2.479,4.266-3.938c2.405-2.435,4.173-3.75,6.19-5.5c3.898-3.39,8.69-7.113,13.524-9.859
		c2.39-1.357,5.582-2.49,8.482-3.896c3.728-1.805,6.54-3.943,9.857-4.815c8.104-2.121,20.883-4.511,30.947-2.979
		c1.755,0.27,3.896,1.348,6.192,1.838c8.175,1.746,11.779,4.897,17.648,9.625c5.281,4.264,8.823,8.812,11.687,14.672
		c0.987,2.018,2.242,4.018,2.754,5.733c3.739,12.548,1.076,25.237-5.042,33.237c-4.168,5.441-10.485,10.113-18.182,11.781
		c-0.719,0.832-1.216,1.766-1.39,2.971c-0.175,1.191-0.082,0.961,0.922,1.445c0.246,0.121,0.468,0.271,0.674,0.432
		c17.725-5.842,28.64-18.119,29.663-37.262C710.37,384.213,709.229,377.141,707.074,371.706z"/>
	<path d="M722.967,377.657c-1.188-7.482-2.93-14.939-6.251-20.919c-1.46-2.633-3.112-6.12-5.29-8.418
		c-1.264-1.329-2.153-2.131-3.129-3.604c-0.916-1.396-2.01-2.885-3.124-3.85c-1.468-1.275-3.521-1.753-5.049-2.884
		c-2.197-1.633-3.64-3.446-5.771-4.812c-4.188-2.68-9.499-4.895-14.906-6.256c-2.706-0.678-5.703-1.418-8.658-1.922
		c-24.029-4.072-45.899,1.439-62.281,8.898c-2.787,1.27-5.01,3.1-7.453,4.33c-2.957,1.479-5.971,2.438-8.897,4.809
		c-1.042,0.844-1.795,2.225-3.126,3.607c-1.306,1.357-3.003,1.932-2.889,4.088c0.115,2.084,1.98,3.4,3.613,3.605
		c5.204,0.657,8.319-5.677,11.536-7.453c2.618-1.443,5.778-2.396,8.661-4.088c2.646-1.554,5.265-3.506,8.172-4.568
		c1.696-0.621,3.739-0.998,5.774-1.684c5.294-1.802,11.953-3.582,17.791-4.568c13.344-2.258,28.618-0.227,38.954,2.883
		c7.1,2.137,11.704,4.275,16.597,8.178c1.992,1.586,4.499,3.004,5.77,4.328c1.112,1.16,2.006,3.287,3.364,5.049
		c7.807,10.117,14.932,28.809,11.545,46.41c-1.479,7.684-5.316,13.955-9.621,18.996c-1.379,1.617-2.887,3.861-4.324,5.049
		c-0.983,0.812-2.572,1.279-3.849,2.166c-1.277,0.887-2.24,2.102-3.366,2.645c-3.617,1.738-8.319,3.73-13.34,3.881
		c0.445,1.301,0.399,2.807-0.127,4.068c1.275-0.061,2.498-0.146,3.608-0.254c10.094-0.947,21.121-9.82,25.727-15.15
		C721.041,410.487,725.671,394.678,722.967,377.657z"/>
	<path d="M551.516,419.979c1.935-1.682,3.863,1.758,5.052,3.367c1.821,2.471,4.3,6.062,6.491,8.656
		c1.13,1.338,2.166,3.031,3.367,4.09c1.943,1.711,4.503,2.582,6.25,3.604c4.363,2.557,7.334,4.627,13.707,6.012
		c1.757,0.383,6.801,0.713,6.976,2.646c0.468,5.227-16.944,1.941-19.236,1.205c-5.338-1.721-11.514-5.412-14.67-9.141
		c-0.871-1.027-1.657-2.588-2.646-3.846c-2.311-2.951-3.827-5.326-5.048-9.859C551.247,424.809,550.035,422.084,551.516,419.979z"/>
</g>
</svg>
