<?xml version="1.0" encoding="utf-8"?>
<!-- Generator: Adobe Illustrator 16.0.4, SVG Export Plug-In . SVG Version: 6.00 Build 0)  -->
<!DOCTYPE svg PUBLIC "-//W3C//DTD SVG 1.1//EN" "http://www.w3.org/Graphics/SVG/1.1/DTD/svg11.dtd">
<svg version="1.1" id="Layer_1" xmlns="http://www.w3.org/2000/svg" xmlns:xlink="http://www.w3.org/1999/xlink" x="0px" y="0px"
	 width="30px" height="25px" viewBox="0 0 30 25" enable-background="new 0 0 30 25" xml:space="preserve">
<polygon fill="#FFFFFF" stroke="#000000" stroke-width="1.0792" stroke-miterlimit="10" points="4.918,12.501 14.942,20.643 
	24.967,12.501 14.942,4.358 "/>
<g>
	<g>
		<path d="M14.942,22.532L2.591,12.501L14.942,2.467l12.353,10.034L14.942,22.532z M5.654,12.501l9.289,7.544l9.289-7.544
			l-9.289-7.545L5.654,12.501z"/>
	</g>
</g>
<g>
	<path d="M12.176,17.153l0.305-3.531l-0.818,0.363l-0.644-1.454l1.617-0.716l0.3-3.505l0.124-0.023l3.619-0.684
		c0.27-0.048,0.513,0.032,0.681,0.216c0.135,0.151,0.199,0.352,0.179,0.567L17.3,10.583c0.701,0.501,0.942,1.125,0.854,2.189
		l-0.312,2.702c-0.045,0.372-0.322,0.668-0.692,0.739L12.176,17.153z M14.135,12.892l-0.22,2.366l2.457-0.466l0.225-2.025
		c0.03-0.218-0.01-0.388-0.115-0.508c-0.104-0.12-0.276-0.191-0.475-0.199L14.135,12.892z M14.407,9.587l-0.092,1.467l1.439-0.6
		l0.127-1.145L14.407,9.587z"/>
</g>
</svg>
