<?xml version="1.0" encoding="utf-8"?>
<!-- Generator: Adobe Illustrator 16.0.4, SVG Export Plug-In . SVG Version: 6.00 Build 0)  -->
<!DOCTYPE svg PUBLIC "-//W3C//DTD SVG 1.1//EN" "http://www.w3.org/Graphics/SVG/1.1/DTD/svg11.dtd">
<svg version="1.1" id="Layer_1" xmlns="http://www.w3.org/2000/svg" xmlns:xlink="http://www.w3.org/1999/xlink" x="0px" y="0px"
	 width="829.459px" height="448.478px" viewBox="0 0 829.459 448.478" enable-background="new 0 0 829.459 448.478"
	 xml:space="preserve">
<g>
	<path d="M764.767,83.118l-16.156,3.197c-1.405,0.278-2.594,1.775-2.914,3.074l-10.706,75.89
		c-5.12,13.39-12.603,21.66-20.086,23.236c-8.27,1.968-13.782-4.727-12.208-15.753l10.781-77.301
		c0.246-1.463-0.777-2.346-2.184-2.067l-16.158,3.196c-1.405,0.279-2.71,1.655-2.91,3.076l-7.873,55.591
		c-4.173,25.253-16.604,43.155-32.459,45.861c-12.604,2.363-20.873-6.695-18.51-22.842l7.481-54.74l22.843-4.727
		c1.182,0,2.758-1.575,2.758-2.757l1.696-11.484c0.271-1.511-0.768-2.347-2.173-2.069L643.55,106.9l6.647-47.633
		c0.198-1.42-0.782-2.348-2.189-2.074L631.62,60.4c-1.407,0.275-2.71,1.65-2.907,3.07l-6.646,47.634l-13.798,2.76
		c-1.407,0.28-2.847,1.795-2.914,3.08l-1.508,11.71c0,1.183,0.787,2.363,1.97,1.97l13.784-2.757l-6.423,45.386
		c-5.126,26.608-15.451,38.221-25.083,40.073c-9.452,1.969-14.178-4.727-12.998-14.572l10.657-77.839
		c0.371-1.318-0.787-2.344-2.192-2.064l-15.926,3.185c-1.406,0.281-2.708,1.662-2.911,3.081l-7.893,55.589
		c-5.182,30.097-16.093,42.882-26.237,45.223c-9.056,1.575-13.782-5.12-12.601-14.966l6.465-47.084
		c2.593-19.865-12.844-31.056-29.891-27.789c-8.406,1.635-16.348,6.772-22.184,16.58l-0.361-8.848
		c-0.06-1.434-1.247-2.367-2.652-2.085l-11.253,2.25c-1.406,0.281-2.713,1.661-2.918,3.079l-8.385,57.969
		c-5.013,26.836-15.176,39.509-25.701,41.765c-9.058,1.969-13.784-4.727-12.603-14.572l3.157-25.382l7.348-52.539
		c0.196-1.42-0.781-2.344-2.188-2.062l-15.922,3.186c-1.405,0.281-2.71,1.659-2.91,3.081l-7.847,55.253l-0.146-0.045
		c-5.514,25.204-23.236,46.47-46.866,50.801c-11.391,1.899-21.66-0.872-28.623-5.868c25.206-14.452,42.28-34.309,47.652-70.256
		l7.472-50.206c3.501-23.817-17.516-33.157-35.961-30.122c-15.413,2.568-29.424,14.01-32.228,33.16l-13.358,92.214l-0.088-0.033
		c-4.333,30.718-12.997,43.32-24.023,45.683c-8.665,1.971-14.179-3.938-12.604-14.572l6.406-47.399
		c2.652-19.942-13.544-31.06-29.89-27.79c-7.94,1.636-16.112,6.772-21.95,16.579l-0.18-8.845c-0.03-1.434-1.193-2.359-2.597-2.067
		l-11.729,2.443c-1.404,0.292-2.706,1.679-2.908,3.098l-2.498,17.522l-0.029-0.011c-3.886,27.202-21.887,48.268-42.612,56.872
		l13.516-98.436c3.735-26.385-17.047-42.966-42.736-37.829c-17.747,3.503-33.857,15.881-37.594,41.566l-9.341,63.517
		c-3.947,31.167,18.001,52.888,49.375,52.69l-2.676,18.893c-2.362,17.722-11.421,27.174-23.234,29.537
		c-7.09,1.575-14.966-0.394-20.479-4.727c-0.788-1.181-2.757-0.787-3.15,0.396l-4.28,11.235c-0.446,1.366-0.528,2.976,0.62,3.837
		c8.397,6.297,20.489,8.904,32.782,6.53c15.179-3.036,37.129-14.476,41.798-47.872l3.045-22.181
		c14.938-5.318,28.458-15.286,38.497-28.413l-6.38,44.754c-0.204,1.42,0.773,2.344,2.18,2.062l15.924-3.186
		c1.405-0.281,2.624-1.819,2.921-3.078l10.731-73.96c3.544-14.964,12.208-21.66,18.903-23.235
		c8.664-1.575,14.57,5.514,12.996,16.541l-6.345,41.891c-3.895,27.027,17.515,32.695,31.992,29.658
		c6.806-1.433,12.957-4.936,18.26-10.74l-0.981,6.771l0.136-0.154l-4.222,28.857h-3.284c-32.691,0-52.884,18.318-54.788,38.998
		c-2.035,23.033,15.687,32.485,32.621,32.485c16.147,0,37.413-8.271,42.485-43.695l1.588-10.976h158.139
		c1.434,0,2.597-1.162,2.597-2.596v-11.62c0-1.433-1.163-2.597-2.597-2.597H296.702l6.999-48.362
		c9.116,8.235,24.789,12.048,41.184,9.384c18.111-2.995,33.336-13.388,43.662-30.05c4.947,13.285,19.704,14.981,31.062,11.835
		c7.991-2.169,15.198-6.916,21.162-15.829l-1.175,8.124c-0.205,1.419,0.771,2.348,2.178,2.071l16.388-3.208
		c1.406-0.275,2.729-1.5,2.914-3.068l10.448-74.046c3.544-14.965,12.208-21.266,18.509-22.841
		c8.271-1.97,14.572,4.332,12.996,16.146l-5.894,41.978c-3.558,26.547,15.882,32.925,32.227,29.658
		c11.261-2.226,20.782-8.839,27.779-21.808c6.069,9.88,18.98,11.647,29.434,9.431c11.013-2.295,21.422-9.5,28.87-24.826
		c7.015,11.081,21.883,14.735,35.58,12.215c14.035-2.575,24.585-10.911,32.055-23.032c4.972,10.545,17.243,14.299,27.958,12.29
		c7.706-1.399,14.245-6.304,20.083-13.543l-8.979,63.981c-0.2,1.418,0.802,2.57,2.235,2.57h15.354c1.434,0,2.76-1.151,2.961-2.57
		L766.95,85.186C767.149,83.765,766.175,82.841,764.767,83.118z M91.092,239.71l9.059-62.617
		c1.968-12.602,8.27-18.903,16.145-20.478c10.24-1.576,19.299,5.907,17.329,19.69l-14.545,102.688
		C100.512,277.145,87.758,262.381,91.092,239.71z M270.728,353.475c-2.022,14.228-11.474,19.349-18.562,19.741
		c-9.846,0.788-14.571-7.088-12.874-15.537c2.635-12.817,13.922-21.018,31.903-21.018h1.993L270.728,353.475z M322.659,141.256
		c1.181-8.663,5.907-14.177,12.602-14.965c7.876-1.182,14.966,3.938,12.996,16.146l-6.174,40.823
		c-4.165,27.349-13.722,45.988-33.583,58.918L322.659,141.256z"/>
	<path d="M581.671,99.662c6.535-1.401,10.74-7.706,9.34-14.478c-1.401-7.007-8.174-10.743-14.247-9.574
		c-7.005,1.4-10.973,8.172-9.805,14.478C568.358,96.859,575.132,101.062,581.671,99.662z"/>
	<path d="M414.708,133.288c6.067-1.167,10.974-7.473,9.571-14.711c-1.399-6.771-7.706-10.743-14.476-9.339
		c-7.008,1.4-10.977,8.172-9.81,14.243C401.396,130.253,408.4,134.455,414.708,133.288z"/>
	<path d="M711.721,323.076l19.206-41.772c0.601-1.305-0.077-2.361-1.51-2.361h-14.596c-1.434,0-3.062,1.066-3.635,2.381
		l-13.612,31.141v-30.922c0-1.436-1.163-2.6-2.597-2.6h-13.414c-1.435,0-2.599,1.164-2.599,2.6v85.344
		c0,1.433,1.164,2.596,2.599,2.596h13.414c1.434,0,2.597-1.163,2.597-2.596v-31.852l14.269,32.074
		c0.584,1.31,2.219,2.373,3.652,2.373h15.771c1.435,0,2.098-1.049,1.479-2.344L711.721,323.076z"/>
	<path d="M647.3,295.368c2.92,0,5.892,0.574,8.875,1.643c1.351,0.482,2.704-0.156,3.071-1.543l2.881-10.896
		c0.368-1.389-0.397-2.986-1.731-3.518c-5.351-2.125-11.445-3.71-17.729-3.71c-12.039,0-20.627,5.896-23.576,13.308v66.533
		c2.949,7.414,11.537,13.307,23.576,13.307c6.283,0,12.312-1.583,17.647-3.709c1.332-0.53,2.112-2.135,1.761-3.525l-2.86-11.387
		c-0.35-1.391-1.685-2.022-3.022-1.506c-3.188,1.232-6.278,1.936-9.315,1.936c-4.04,0-7.073-1.262-9.682-3.537v-49.859
		C639.721,296.716,643.007,295.368,647.3,295.368z"/>
	<path d="M574.881,276.755c-12.128,0-23.157,6.654-26.356,14.316v66.281c3.03,7.666,13.977,14.318,26.356,14.318
		c12.291,0,23.573-6.652,26.521-14.318v-66.281C598.118,283.491,586.919,276.755,574.881,276.755z M582.793,351.542
		c-1.769,1.938-4.631,3.031-7.912,3.031c-3.371,0-5.979-1.094-7.917-3.031v-54.574c1.938-1.938,4.8-3.117,7.917-3.117
		c3.028,0,5.893,1.18,7.912,3.117V351.542z"/>
	<path d="M509.279,278.942h-24.262c-1.433,0-2.598,1.164-2.598,2.6v85.344c0,1.433,1.165,2.596,2.598,2.596h24.262
		c11.788-0.084,19.621-6.57,21.556-14.15v-62.322C528.73,285.513,521.067,279.028,509.279,278.942z M513.321,349.688
		c-0.42,1.938-2.441,3.369-4.716,3.369h-9.346V295.03h9.346c2.105,0.084,4.21,1.517,4.716,3.537V349.688z"/>
</g>
</svg>
