<?xml version="1.0" encoding="utf-8"?>
<!-- Generator: Adobe Illustrator 16.0.4, SVG Export Plug-In . SVG Version: 6.00 Build 0)  -->
<!DOCTYPE svg PUBLIC "-//W3C//DTD SVG 1.1//EN" "http://www.w3.org/Graphics/SVG/1.1/DTD/svg11.dtd">
<svg version="1.1" id="Layer_1" xmlns="http://www.w3.org/2000/svg" xmlns:xlink="http://www.w3.org/1999/xlink" x="0px" y="0px"
	 width="259px" height="150px" viewBox="-14.5 0 259 150" enable-background="new -14.5 0 259 150" xml:space="preserve">
<rect x="-14.5" y="34.167" fill="#FFFFFF" width="259" height="68.333"/>
<g>
	<path d="M121.887,51.639l-5.512,0.121c-1.001,3.706-4.133,7.003-10.922,8.285l-9.299,2.52l0.427-4.571l11.517-3.42
		c1.24-0.342,2.039-1.304,2.206-2.528l1.455-10.501c0.289-1.732-1.326-3.158-3.065-2.83l-13.848,2.617
		c-1.412,0.267-2.518,1.504-2.618,2.875l-1.216,13.502c-0.839,3.39-2.069,4.998-7.596,7.048c-0.052,0.019-7.089,1.488-7.142,1.508
		l0.347-3.949l8.181-4.494c1.239-0.344,2.038-1.305,2.205-2.529l2.053-20.239c0.289-1.732-1.327-3.159-3.065-2.831l-10.199,1.92
		c-1.412,0.267-2.518,1.503-2.618,2.875l-0.731,8.314c0.034-0.04,0.068-0.078,0.104-0.116l-1.159,13.591l-4.966,2.732l1.421-14.679
		l-5.703,1.077l-1.601,16.84l-9.1,5.006L53.4,49.589l-5.702,1.078l-2.243,24.178c-0.212,1.99,1.369,3.043,3.054,2.725
		c0.626-0.117,0.386,0.013,4.424-2.237l6.962-3.825l-0.951,9.233l-19.26,3.72l2.026-17.358c0.5-4.07,0.632-7.859-3.205-9.504
		c3.213-1.839,4.091-5.122,4.716-7.873l1.567-9.056l-5.632,1.057l-1.302,7.77c-1.077,4.717-5.053,5.731-11.355,7.668l1.613-13.366
		l-5.575,1.046L17.505,83.42l5.632-1.059l2.422-18.946c7.074-2.994,11.515-2.538,10.745,3.79l-2.855,23.952l28.376-5.278
		c1.357-0.257,2.412-1.431,2.515-2.803l1.432-14.798l5.048-2.774L70.454,69.8c-0.201,1.498,1.344,3.372,3.353,2.992l8.56-1.748
		c2.944-0.556,5.773-1.763,8.148-3.635c0.471,0.944,1.538,1.507,2.751,1.275l12.666-3.154
		C114.297,63.949,120.424,58.895,121.887,51.639z M97.647,46.214l8.201-1.55l-0.761,5.176l-8.048,2.657L97.647,46.214z
		 M78.673,39.012l4.475-0.839l-1.359,14.914l-4.578,2.518L78.673,39.012z"/>
	<path d="M127.275,56.145c-1.58,11.855,6.293,16.72,17.937,14.535c1.097-0.206,2.097-1.093,2.263-2.145l0.414-2.604
		c4.166,2.552,7.492,2.841,12.797,1.846c1.692-0.319,2.537-1.069,3.004-2.715l1.772-18.195l4.151-0.779l0.592-5.541l-6.943,1.302
		c-1.365,0.257-2.699,1.152-3.092,3.108l-1.814,17.396c-6.287,0.158-9.785-1.282-9.246-5.737l2.154-22.625l-5.469,1.027
		l-3.513,30.352c-7.712,0.319-10.011-2.421-9.353-8.781l3.51-32.766l-42.925,8.178l-0.702,5.869l37.383-7.124L127.275,56.145z"/>
	<polygon points="93.668,122.732 155.201,110.916 155.955,105.038 94.369,116.865 	"/>
	<polygon points="185.165,63.434 185.92,57.555 170.482,60.309 169.782,66.178 	"/>
	<path d="M88.333,88.542l1.13-10.388c0.177-1.764-1.261-3.062-3-2.733l-16.4,3.099L68.71,94.275l-7.042,3.115l2.305,5.211
		l4.181-1.852l-1.397,16.271l21.562-4.072c1.357-0.256,2.362-1.366,2.524-2.695l-0.006-0.053l1.417-12.174
		C92.628,93.466,91.675,90.777,88.333,88.542z M75.317,83.047l8.255-1.561l-0.744,6.634l-8.041,3.36L75.317,83.047z M86.69,98.158
		l-1.078,9.727l-12.655,2.393l1.126-12.147l8.926-4.004C84.872,94.074,87.092,95.146,86.69,98.158z"/>
	<path d="M162.492,72.135l-14.12,2.668c-1.356,0.257-2.413,1.429-2.569,2.812l-1.011,10.527c-0.09,1.476,0.968,2.846,2.729,2.782
		l10.637-0.817l-0.551,4.433l-18.084,3.42l1.617-16.919c0.248-2.861-0.963-4.689-3.73-4.166l-15.317,2.893l-1.444,14.992
		c-0.698,3.975-4.25,7.567-10.984,8.838l-8.417,1.592l0.428-4.569l11.515-3.42c1.24-0.345,2.039-1.306,2.207-2.528l1.455-10.502
		c0.291-1.73-1.326-3.158-3.063-2.83l-13.849,2.616c-1.412,0.269-2.517,1.504-2.618,2.876l-1.959,21.744l0.005,0.053
		c-0.182,1.712,1.257,3.012,2.995,2.684l11.784-2.229c8.256-1.56,14.506-6.474,15.861-13.656l-0.008-0.104l0.046-0.117l1.371-10.811
		l8.036-1.521l-2.062,21.815l2.815-0.53v0.004l24.221-4.578c1.357-0.257,2.466-1.495,2.568-2.812l1.028-9.664
		c0.098-1.426-0.98-3.008-2.73-2.838l-10.523,0.851l0.527-5.294l8.146-1.539l-0.299,2.275l5.758-1.09l0.646-4.613
		C165.771,73.033,164.339,71.79,162.492,72.135z M102.739,88.838l8.2-1.548l-0.763,5.174l-8.046,2.657L102.739,88.838z"/>
	<path d="M211.284,63.034l-38.392,7.254c-1.357,0.256-2.912,1.416-3.021,3.33l-1.684,21.099c-0.146,1.487,1.228,3.284,2.803,2.987
		l14.283-2.699c1.248-0.235,2.156-1.219,2.319-2.496l2.183-19.782l5.627-1.063l-2.152,21.833l5.538-1.046l2.499-21.899l8.036-1.518
		l-2.063,21.817l5.596-1.059l2.162-22.593C215.262,64.34,214.052,62.512,211.284,63.034z M182.729,89.912l-8.744,1.652l1.455-16.129
		l8.799-1.663L182.729,89.912z"/>
</g>
</svg>
