<?xml version="1.0" encoding="utf-8"?>
<!-- Generator: Adobe Illustrator 16.0.4, SVG Export Plug-In . SVG Version: 6.00 Build 0)  -->
<!DOCTYPE svg PUBLIC "-//W3C//DTD SVG 1.1//EN" "http://www.w3.org/Graphics/SVG/1.1/DTD/svg11.dtd">
<svg version="1.1" id="Layer_1" xmlns="http://www.w3.org/2000/svg" xmlns:xlink="http://www.w3.org/1999/xlink" x="0px" y="0px"
	 width="89px" height="98px" viewBox="0 0 89 98" enable-background="new 0 0 89 98" xml:space="preserve">
<g>
	<path d="M50.613,30.331c-2.542,0-5.403,2.33-6.303,6.674l-0.015-0.007l-1.318,6.149l0.009,0.004
		c-1.324,6.304,1.431,8.795,4.396,8.795c4.504,0,7.312-5.881,7.578-12.874C55.171,33.032,53.368,30.331,50.613,30.331z"/>
	<path d="M43.903,7.611c-19.606,0-35.5,15.894-35.5,35.5c0,7.123,1.987,13.823,5.716,19.299
		c5.325,7.826,29.784,27.969,29.784,27.969s23.291-18.27,29.424-27.432c3.805-5.681,6.076-12.482,6.076-19.836
		C79.403,23.505,63.507,7.611,43.903,7.611z M64.652,40.184c-0.74,12.715-7.944,19.814-15.417,19.814
		c-4.545,0-7.307-2.638-8.48-6.484l-3.014,14.059l-8.264-2.436l7.151-31.471c0.423-1.853,0.265-3.761-1.324-3.761
		c-1.907,0-2.754,2.702-1.801,8.212l-7.1,1.377c-4.821-9.271,0.212-17.112,8.477-16.476c4.03,0.318,6.026,2.454,7.242,4.972
		c2.496-3.798,5.959-5.607,9.87-5.607C58.138,22.383,65.395,26.781,64.652,40.184z"/>
</g>
</svg>
