<?xml version="1.0" encoding="utf-8"?>
<!-- Generator: Adobe Illustrator 16.0.4, SVG Export Plug-In . SVG Version: 6.00 Build 0)  -->
<!DOCTYPE svg PUBLIC "-//W3C//DTD SVG 1.1//EN" "http://www.w3.org/Graphics/SVG/1.1/DTD/svg11.dtd">
<svg version="1.1" id="Layer_1" xmlns="http://www.w3.org/2000/svg" xmlns:xlink="http://www.w3.org/1999/xlink" x="0px" y="0px"
	 width="829.459px" height="585.98px" viewBox="0 0 829.459 585.98" enable-background="new 0 0 829.459 585.98"
	 xml:space="preserve">
<g>
	<g>
		<path d="M175.317,494.278c-8.775,3.556-18.351,5.532-28.386,5.532c-26.043,0-49.058-13.198-62.721-33.253l-7.866,3.842
			c15.132,22.928,41.121,38.088,70.587,38.088c11.817,0,23.074-2.442,33.298-6.842L175.317,494.278z"/>
		<path d="M222.776,423.964c0,17.484-5.953,33.6-15.929,46.439l6.175,6.175c11.527-14.447,18.431-32.736,18.431-52.614
			c0-42.15-31.016-77.19-71.422-83.506v8.815C195.627,355.501,222.776,386.612,222.776,423.964z"/>
	</g>
	<g>
		<g>
			<path d="M140.359,332.813V367.9h8.676v-35.087c0-12.499-10.17-22.667-22.67-22.667H84.049c-12.5,0-22.67,10.168-22.67,22.667
				v88.146h8.676v-88.146c0-7.714,6.277-13.992,13.995-13.992h42.316C134.082,318.821,140.359,325.1,140.359,332.813z"/>
		</g>
		<path d="M111.071,405.974H84.984V347.06h40.44v26.631h5.785v-32.416H79.2v70.482h28.977
			C109.018,409.786,109.978,407.853,111.071,405.974z"/>
		<g>
			<rect x="93.94" y="326.778" width="22.534" height="5.784"/>
		</g>
		<g>
			<path d="M108.49,452.589H52.313v-27.292h55.7c0.9-2.86,1.52-5.727,1.109-8.677H43.637v44.646h69.184
				C111.181,458.523,109.719,455.599,108.49,452.589z"/>
		</g>
	</g>
	<g>
		<g>
			<path d="M156.581,489.375c-15.216,0-29.52-5.926-40.28-16.687c-22.21-22.21-22.21-58.35,0.001-80.56
				c10.76-10.76,25.064-16.683,40.28-16.683s29.52,5.923,40.28,16.683s16.686,25.064,16.686,40.279
				c0,15.216-5.925,29.521-16.686,40.28C186.102,483.449,171.797,489.375,156.581,489.375z M156.582,384.123
				c-12.898,0-25.025,5.021-34.146,14.141c-18.828,18.828-18.828,49.463,0,68.29c9.121,9.122,21.246,14.146,34.145,14.146
				c12.897,0,25.025-5.023,34.146-14.146c9.121-9.12,14.145-21.247,14.145-34.146c0-12.897-5.024-25.023-14.145-34.145
				C181.607,389.145,169.48,384.123,156.582,384.123z"/>
		</g>
		<g>
			<path d="M156.583,477.675c-12.091,0-23.457-4.709-32.008-13.258c-8.55-8.55-13.259-19.917-13.259-32.009
				c0-12.091,4.709-23.458,13.259-32.007c8.551-8.55,19.917-13.259,32.008-13.259s23.458,4.709,32.007,13.259
				c17.649,17.648,17.649,46.366,0,64.016C180.041,472.966,168.674,477.675,156.583,477.675z M156.583,392.927
				c-10.546,0-20.461,4.107-27.918,11.564c-7.457,7.456-11.564,17.372-11.564,27.917c0,10.547,4.107,20.461,11.564,27.919
				c7.457,7.457,17.372,11.563,27.918,11.563s20.46-4.106,27.917-11.562c15.393-15.395,15.393-40.442,0-55.837
				C177.043,397.034,167.129,392.927,156.583,392.927z"/>
		</g>
		<polygon points="200.34,484.348 191.668,475.677 199.848,467.495 208.521,476.166 212.61,472.077 199.848,459.315 
			183.489,475.677 196.25,488.437 		"/>
		<g>
			<path d="M210.498,516.992l-2.062-2.052l-22.41-22.414l30.697-30.695l24.979,25.315l-1.013,2.617
				c-4.846,12.521-14.926,22.139-27.654,26.383L210.498,516.992z M198.295,492.527l14.462,14.465
				c8.251-3.43,14.901-9.755,18.748-17.826l-14.824-15.023L198.295,492.527z"/>
		</g>
		<g>
			<g>
				<path fill="#FFFFFF" d="M171.802,425.376v-5.114c0-8.408-6.812-15.221-15.218-15.221c-8.407,0-15.221,6.812-15.221,15.221v5.047
					l5.168,0.045v-5.425c0-5.552,4.5-10.053,10.052-10.053c5.55,0,10.049,4.501,10.049,10.053v5.471L171.802,425.376z"/>
				<path d="M162.295,429.756v-9.827c0-3.15-2.562-5.714-5.711-5.714c-3.151,0-5.714,2.563-5.714,5.714v9.802l-13.845-0.121v-9.348
					c0-10.785,8.774-19.559,19.559-19.559c10.783,0,19.556,8.773,19.556,19.559v9.434L162.295,429.756z"/>
			</g>
			<g>
				<rect x="141.363" y="436.987" fill="#FFFFFF" width="5.026" height="3.79"/>
				<rect x="137.025" y="432.65" width="13.702" height="12.465"/>
			</g>
			<g>
				<rect x="166.776" y="436.987" fill="#FFFFFF" width="5.026" height="3.79"/>
				<rect x="162.438" y="432.65" width="13.702" height="12.465"/>
			</g>
			<g>
				<rect x="166.448" y="451.843" width="5.784" height="8.617"/>
			</g>
			<g>
				
					<rect x="176.999" y="448.237" transform="matrix(0.7071 0.7071 -0.7071 0.7071 372.1375 3.8875)" width="8.756" height="5.783"/>
			</g>
			<g>
				<rect x="140.951" y="451.843" width="5.784" height="8.617"/>
			</g>
			<g>
				
					<rect x="128.946" y="446.003" transform="matrix(0.7074 0.7069 -0.7069 0.7074 356.9011 38.595)" width="5.785" height="8.661"/>
			</g>
			<g>
				<rect x="153.445" y="451.843" width="5.784" height="8.617"/>
			</g>
		</g>
	</g>
</g>
<g>
	<g>
		<path d="M694.214,485.896c-3.791,0.585-7.673,0.891-11.625,0.891c-11.589,0-22.573-2.621-32.406-7.288l-5.252,7.096
			c11.346,5.672,24.135,8.869,37.658,8.869c4.87,0,9.645-0.42,14.293-1.216L694.214,485.896z"/>
		<path d="M757.828,401.507c0.07-0.003,0.132-0.021,0.202-0.021h8.55c-4.716-42.171-40.58-75.067-83.991-75.067
			c-15.423,0-29.892,4.155-42.352,11.399l2.648,8.532c11.556-7.13,25.155-11.255,39.703-11.255
			C721.216,335.096,753.166,364.125,757.828,401.507z"/>
	</g>
	<g>
		<g>
			<path d="M799.256,463.563H590.784v-51.18h208.472V463.563z M599.461,454.887h191.118v-33.826H599.461V454.887z"/>
		</g>
		<g>
			<path d="M776.447,476.549H629.869v-21.662h146.578V476.549z M638.545,467.873h129.226v-4.31H638.545V467.873z"/>
		</g>
		<g>
			<path d="M623.992,476.549h-33.208v-21.662h33.208V476.549z M599.461,467.873h15.855v-4.31h-15.855V467.873z"/>
		</g>
		<g>
			<g>
				<path d="M631.283,421.061h-40.499v-13.542l17.278-52.83l23.221-15.088V421.061z M599.461,412.384h23.146v-56.8l-7.251,4.711
					l-15.895,48.606V412.384z"/>
			</g>
			<g>
				<polygon points="625.903,377.078 614.827,377.078 614.827,354.283 620.611,354.283 620.611,371.294 625.903,371.294 				"/>
			</g>
		</g>
		<g>
			<g>
				<path d="M783.733,421.061h-84.071v-81.46l23.181,15.061l15.777,45.107h45.113V421.061z M708.339,412.384h66.719v-3.939h-42.594
					l-16.832-48.122l-7.293-4.738V412.384z"/>
			</g>
			<g>
				<polygon points="716.118,377.078 707.125,377.078 707.125,371.294 710.335,371.294 710.335,354.283 716.118,354.283 				"/>
			</g>
		</g>
		<g>
			<rect x="713.514" y="472.211" fill="#FFFFFF" width="4.582" height="9.866"/>
			<rect x="710.622" y="469.318" width="10.366" height="15.649"/>
		</g>
		<g>
			<path d="M726.226,498h-20.841v-18.651h20.841V498z M711.168,492.215h9.273v-7.083h-9.273V492.215z"/>
		</g>
		<g>
			<rect x="713.084" y="482.24" width="5.373" height="12.867"/>
		</g>
		<g>
			<g>
				<rect x="624.053" y="416.723" width="5.784" height="16.57"/>
			</g>
			<g>
				<rect x="634.463" y="416.723" width="5.784" height="16.57"/>
			</g>
			<g>
				<rect x="644.877" y="416.723" width="5.784" height="16.57"/>
			</g>
			<g>
				<rect x="655.287" y="416.723" width="5.785" height="23.856"/>
			</g>
			<g>
				<rect x="665.7" y="416.723" width="5.783" height="16.57"/>
			</g>
			<g>
				<rect x="676.11" y="416.723" width="5.783" height="16.57"/>
			</g>
			<g>
				<rect x="686.524" y="416.723" width="5.783" height="16.57"/>
			</g>
			<g>
				<rect x="696.934" y="416.723" width="5.784" height="23.856"/>
			</g>
			<g>
				<rect x="707.346" y="416.723" width="5.785" height="16.57"/>
			</g>
			<g>
				<rect x="717.757" y="416.723" width="5.784" height="16.57"/>
			</g>
			<g>
				<rect x="728.171" y="416.723" width="5.784" height="16.57"/>
			</g>
			<g>
				<rect x="738.582" y="416.723" width="5.784" height="23.856"/>
			</g>
			<g>
				<rect x="748.992" y="416.723" width="5.784" height="16.57"/>
			</g>
			<g>
				<rect x="759.405" y="416.723" width="5.784" height="16.57"/>
			</g>
			<g>
				<rect x="769.815" y="416.723" width="5.784" height="16.57"/>
			</g>
			<g>
				<rect x="780.229" y="416.723" width="5.784" height="23.856"/>
			</g>
		</g>
		<g id="Pue1W4_4_">
			<g>
				<g>
					<path fill-rule="evenodd" clip-rule="evenodd" d="M666.172,350.55c1.217,0,2.431-0.021,3.647,0.008
						c1.132,0.026,1.686,0.597,1.704,1.74c0.02,1.121,0.017,2.245-0.001,3.367c-0.009,0.49,0.161,0.694,0.666,0.863
						c1.097,0.365,2.163,0.84,3.209,1.339c0.431,0.206,0.656,0.107,0.945-0.194c0.744-0.774,1.547-1.497,2.27-2.29
						c0.978-1.083,1.867-0.868,2.725,0.014c1.63,1.675,3.309,3.304,4.95,4.968c1.029,1.048,1.01,1.802-0.033,2.864
						c-0.719,0.736-1.44,1.468-2.186,2.18c-0.307,0.291-0.385,0.522-0.188,0.946c0.509,1.093,0.965,2.214,1.379,3.344
						c0.139,0.382,0.316,0.525,0.69,0.522c1.169-0.008,2.339-0.017,3.507,0.003c1.142,0.018,1.723,0.567,1.733,1.709
						c0.023,2.521,0.024,5.049-0.002,7.575c-0.009,1.053-0.603,1.62-1.655,1.646c-1.167,0.026-2.336,0.015-3.506,0
						c-0.43-0.002-0.627,0.139-0.783,0.585c-0.398,1.138-0.887,2.245-1.38,3.348c-0.159,0.354-0.122,0.567,0.152,0.829
						c0.809,0.779,1.604,1.57,2.38,2.379c0.848,0.877,0.88,1.705,0.04,2.561c-1.732,1.774-3.481,3.528-5.258,5.257
						c-0.922,0.898-1.547,0.858-2.504-0.068c-0.77-0.748-1.536-1.505-2.275-2.287c-0.324-0.342-0.599-0.435-1.059-0.221
						c-1.05,0.491-2.12,0.952-3.213,1.336c-0.438,0.152-0.609,0.327-0.604,0.769c0.015,1.121,0.017,2.242,0,3.363
						c-0.018,1.246-0.547,1.808-1.77,1.818c-2.479,0.023-4.957,0.026-7.435-0.002c-1.252-0.012-1.713-0.532-1.729-1.834
						c-0.012-1.027-0.031-2.059,0.008-3.083c0.021-0.591-0.12-0.89-0.757-1.088c-1.059-0.331-2.066-0.825-3.084-1.279
						c-0.37-0.164-0.631-0.226-0.957,0.13c-0.726,0.794-1.545,1.502-2.263,2.3c-1.039,1.154-1.929,0.864-2.725,0.047
						c-1.666-1.702-3.377-3.366-5.048-5.066c-0.966-0.986-0.934-1.742,0.062-2.763c0.751-0.77,1.507-1.536,2.286-2.275
						c0.288-0.274,0.272-0.5,0.127-0.833c-0.482-1.104-0.974-2.213-1.369-3.348c-0.158-0.454-0.371-0.575-0.795-0.573
						c-1.122,0.015-2.244,0.017-3.366,0.003c-1.271-0.017-1.773-0.497-1.785-1.779c-0.022-2.477-0.023-4.953,0.002-7.433
						c0.013-1.206,0.516-1.695,1.704-1.721c1.122-0.025,2.246-0.015,3.366-0.003c0.463,0.006,0.718-0.088,0.892-0.63
						c0.369-1.144,0.886-2.242,1.373-3.347c0.129-0.291,0.147-0.48-0.098-0.717c-0.772-0.746-1.53-1.512-2.284-2.277
						c-1.09-1.109-1.09-1.835,0.028-2.965c1.612-1.63,3.256-3.226,4.851-4.869c0.904-0.933,1.789-1.121,2.825,0.043
						c0.684,0.768,1.451,1.456,2.172,2.191c0.273,0.278,0.486,0.442,0.938,0.226c1.087-0.517,2.205-0.982,3.344-1.379
						c0.465-0.16,0.559-0.395,0.554-0.808c-0.01-1.076-0.011-2.149,0-3.225c0.012-1.438,0.47-1.893,1.935-1.912
						C663.742,350.536,664.958,350.55,666.172,350.55z M666.116,387.612c6.535,0.028,11.872-5.34,11.879-11.909
						c0.006-6.601-5.36-11.978-11.992-11.952c-6.539,0.027-11.874,5.354-11.883,11.927
						C654.108,382.249,659.467,387.694,666.116,387.612z"/>
				</g>
			</g>
		</g>
	</g>
</g>
<g>
	<g>
		<path d="M344.998,461.459c-8.021-12.028-12.709-26.46-12.709-41.969c0-28.538,15.85-53.436,39.203-66.379
			c0.221-3.533,0.717-7.2,1.77-10.608c-29.256,13.306-49.648,42.81-49.648,76.987c0,21.522,8.091,41.189,21.385,56.127V461.459z"/>
		<path d="M483.982,419.49c0,15.586-4.731,30.086-12.826,42.149v14.108c13.364-14.955,21.501-34.673,21.501-56.258
			c0-28.499-14.179-53.747-35.852-69.065l-4.729,7.305C471.367,371.494,483.982,394.04,483.982,419.49z"/>
		<path d="M427.533,501.762c9.77-2.303,18.888-6.307,27.029-11.68L427.533,501.762z"/>
	</g>
	<g>
		<g>
			<polygon points="434.933,429.946 433.788,438.666 447.099,440.989 470.771,443.529 471.778,436.374 			"/>
		</g>
		<g>
			<g>
				<path d="M443.832,318.375l-5.39-0.644c0.78,1.042,1.234,2.371,1.184,3.787l-0.285,2.146l3.849,0.459l0.099,0.011
					c1.231,0.104,2.232,1.379,2.232,2.811l-15.764,120.23l-0.022,0.271c-0.043,1.193-0.743,2.026-1.701,2.026
					c-0.071,0-0.144-0.005-0.161-0.005c-0.004,0-0.006,0.001-0.004,0.001l-5.102-0.905c-0.143,1.335-0.738,2.459-1.602,3.241
					c1.574,0.246,3.16,0.409,4.765,0.456c1.901,0.056,2.913,1.456,3.054,2.929c3.596-0.455,6.317-3.465,6.524-7.383l15.77-120.267
					l0.021-0.271C451.464,322.747,448.118,318.771,443.832,318.375z"/>
			</g>
			<g>
				<path d="M435.05,312.729l-52.186-5.439c-4.269-0.36-7.851,3.06-8.09,7.523L358.1,437.89l5.778,1.141
					c-0.02-0.143-0.037-0.288-0.037-0.433l16.683-123.136l0.025-0.285c0.042-1.193,0.788-2.13,1.697-2.13
					c0.044,0,0.08,0.002,0.071,0l52.19,5.44c1.228,0.104,2.228,1.378,2.229,2.811L419.935,447.77l-0.023,0.276
					c-0.024,0.681-0.271,1.239-0.65,1.598l5.959,1.135c0.258-0.74,0.421-1.533,0.465-2.371l16.808-126.508l0.023-0.275
					C442.68,317.081,439.307,313.089,435.05,312.729z"/>
				<path d="M385.058,447.993c4.77,0.909,9.051,0.182,10.583-1.611l-19.573-3.22C377.211,445.2,380.69,447.157,385.058,447.993z"/>
			</g>
			<g>
				<path d="M417.814,424.814l-45.755-7.396l12.023-87.575l45.807,6.164L417.814,424.814z M378.557,412.608l34.325,5.55
					l10.497-77.192l-34.351-4.623L378.557,412.608z"/>
			</g>
			<g>
				<path d="M399.65,433.817c-0.596,4.202-4.163,7.179-7.952,6.659c-3.774-0.521-6.342-4.315-5.75-8.483
					c0.593-4.17,4.122-7.157,7.899-6.666C397.643,425.817,400.245,429.62,399.65,433.817z"/>
			</g>
			<g>
				
					<rect x="439.082" y="317.534" transform="matrix(0.8205 0.5716 -0.5716 0.8205 262.7333 -195.8941)" width="8.448" height="5.784"/>
			</g>
			<g>
				
					<rect x="397.679" y="321.186" transform="matrix(0.9923 0.1239 -0.1239 0.9923 43.3058 -47.9921)" width="19.431" height="5.785"/>
			</g>
			<g>
				<path d="M395.39,446.646l-19.29-3.422c1.178,2.015,4.633,3.943,8.958,4.77C389.587,448.857,393.675,448.244,395.39,446.646z"/>
				<path d="M449.539,319.484c-1.336-1.254-7.127-4.884-7.175-4.914c-2.983-1.878-5.147-2.241-8.347-2.618l-50.885-6.078
					l-0.146-0.014c-5.067-0.442-9.342,3.581-9.653,8.827l-16.654,122.922l8.779,1.733c-0.088-0.194-0.159-0.405-0.17-0.65
					l16.667-123.025l0.037-0.428c0.017-0.455,0.212-0.697,0.252-0.732l-0.109-0.054c0.625-0.269,1.314-0.394,2.038-0.333
					l59.359,7.133c2.8,0.237,4.986,2.884,4.875,5.911l-15.784,120.389c-0.055,1.529-0.687,2.83-1.657,3.693h5.209
					c0.435-1.019,0.705-2.13,0.772-3.295l15.763-120.212l0.033-0.41C452.85,324.354,451.682,321.493,449.539,319.484z"/>
			</g>
		</g>
		<g>
			<g>
				<path d="M438.113,469.402h-12.026l-85.236-16.574l1.599-18.537l2.595-1.926l34.019,6.717l-0.495,2.656
					c0.347,0.73,2.67,2.58,7.033,3.414c1.188,0.227,2.358,0.343,3.473,0.343c2.612-0.001,4.057-0.647,4.359-0.967
					c0.299-0.683,0.844-1.235,1.703-1.723l0.924-0.521l31.894,6.07h11.845L438.113,469.402z M426.645,463.618h6.129l0.759-9.479
					h-6.123l-29.749-5.662c-1.691,1.803-4.696,2.801-8.586,2.802c-1.478,0-3.013-0.15-4.559-0.445
					c-5.806-1.109-10.044-3.844-11.338-7.019l-25.313-4.997l-0.803,9.326L426.645,463.618z"/>
			</g>
			<g>
				<polygon fill="#FFFFFF" points="436.665,451.246 427.587,451.246 396.389,444.916 403.385,444.916 				"/>
				<path d="M436.665,454.139h-9.078c-0.193,0-0.386-0.02-0.576-0.059l-31.197-6.329c-1.456-0.295-2.45-1.645-2.303-3.122
					c0.149-1.479,1.393-2.604,2.878-2.604h6.996c0.182,0,0.362,0.017,0.54,0.051l33.282,6.33c1.465,0.278,2.479,1.627,2.337,3.112
					C439.405,453.003,438.157,454.139,436.665,454.139z"/>
			</g>
			<g>
				<polygon fill="#FFFFFF" points="381.923,441.493 374.927,441.493 345.021,435.449 352.017,435.449 				"/>
				<path d="M381.923,444.385h-6.996c-0.192,0-0.383-0.019-0.574-0.057l-29.906-6.044c-1.456-0.294-2.453-1.644-2.305-3.123
					c0.148-1.478,1.393-2.604,2.878-2.604h6.997c0.192,0,0.385,0.021,0.574,0.059l29.905,6.044c1.455,0.294,2.452,1.645,2.305,3.122
					C384.653,443.26,383.409,444.385,381.923,444.385z"/>
			</g>
			<g>
				<path d="M388.297,451.183c-5.625-1.478-7.803-4.447-8.499-7.262l-2.147-0.297l0.793-5.729l5.116,0.709l0.678,0.65
					c0.682,0.655,1.039,1.411,1.061,2.245c0.007,1.062,0.015,2.919,4.467,4.09L388.297,451.183z"/>
			</g>
			<g>
				
					<rect x="425.173" y="451.214" transform="matrix(0.995 0.0995 -0.0995 0.995 47.6559 -40.3027)" width="5.784" height="13.249"/>
			</g>
		</g>
		<g>
			<rect x="424.514" y="466.511" width="5.784" height="35.308"/>
		</g>
		<g>
			<polygon points="427.895,506.332 340.66,489.368 340.676,450.113 341.938,435.464 350.583,436.209 349.336,450.673 
				349.336,482.218 426.917,497.303 466.818,480.061 466.818,443.833 451.467,442.189 447.731,470.492 427.482,470.849 
				427.329,462.174 440.107,461.948 443.973,432.662 475.495,436.037 475.495,485.764 			"/>
		</g>
		<g>
			<rect x="408.878" y="524.858" width="5.783" height="18.925"/>
		</g>
		<g>
			<rect x="439.472" y="524.43" transform="matrix(0.3438 0.939 -0.939 0.3438 789.0817 -74.5578)" width="16.833" height="5.785"/>
		</g>
		<g>
			
				<rect x="471.208" y="507.059" transform="matrix(0.7104 0.7038 -0.7038 0.7104 497.6085 -189.507)" width="15.779" height="5.785"/>
		</g>
		<g>
			
				<rect x="372.431" y="517.746" transform="matrix(0.9302 0.3672 -0.3672 0.9302 219.8163 -100.977)" width="5.782" height="19.087"/>
		</g>
		<g>
			
				<rect x="338.853" y="504.2" transform="matrix(0.7204 0.6936 -0.6936 0.7204 450.7813 -93.8132)" width="5.784" height="15.971"/>
		</g>
	</g>
</g>
<g>
	<g>
		<path d="M494.807,211.68c-5.133-7.797-8.876-16.586-10.849-26.022h-8.847c2.005,10.737,6.054,20.76,11.714,29.663
			C489.453,214.035,492.106,212.801,494.807,211.68z"/>
		<g>
			<path d="M575.155,87.318c0.285,2.986,0.37,5.975,0.359,8.965c13.499,3.172,25.622,9.947,35.284,19.272
				c0.033-3.779,0.17-7.563,0.229-11.359C600.759,95.947,588.524,90.056,575.155,87.318z"/>
			<path d="M633.214,181.288c0.21,0.089,0.423,0.206,0.636,0.355c2.445,1.709,4.885,3.429,7.187,5.293
				c1.104-5.438,1.685-11.064,1.685-16.822c0-4.414-0.342-8.75-0.997-12.983l-8.519,1.729c0.549,3.673,0.839,7.43,0.839,11.254
				C634.044,173.91,633.756,177.64,633.214,181.288z"/>
			<path d="M604.842,236.263c-1.728-0.889-2.92-2.159-3.734-3.661c-12.209,8.416-26.99,13.359-42.911,13.359
				c-14.862,0-28.738-4.299-40.453-11.717l-4.552,7.373c13.04,8.239,28.472,13.021,45.005,13.021
				c19.116,0,36.769-6.383,50.943-17.125C607.64,237.315,606.182,236.952,604.842,236.263z"/>
		</g>
	</g>
	<g>
		<path d="M500.811,131.239h6.765v-3.195l-4.338-4.338h-20.494l-5.295,8.676h20.938
			C498.896,131.705,499.701,131.239,500.811,131.239z"/>
		<path d="M500.169,179.712c-1.006-0.006-1.762-0.396-2.276-0.976h-29.155c-5.589,0-8.766-2.516-10.304-8.159
			c-0.958-3.513-2.402-9.692-3.096-15.121c-2.217-2.54-3.516-5.933-3.516-9.847c0-3.623,1.257-6.947,3.348-9.584l6.134-9.756
			c-8.889,4.248-15.045,13.325-15.045,23.815c0,8.575,3.415,21.347,3.804,22.775c2.558,9.384,9.189,14.553,18.675,14.553h34.5
			l4.338-4.338v-2.842C505.123,179.882,502.655,179.729,500.169,179.712z"/>
		<g>
			<g>
				<polygon points="520.238,124.409 519.852,123.706 494.206,123.706 494.206,132.382 520.806,132.382 				"/>
				<path d="M521.885,137.557h-24.783v8.676h32.293c0.437,0,0.867-0.031,1.291-0.08L521.885,137.557z"/>
			</g>
		</g>
		<g>
			<g>
				<polygon points="521.885,137.557 498.711,137.557 498.711,146.233 530.769,146.233 				"/>
				<path d="M537.536,151.404h-38.825v8.676h37.418c0.58,0,1.146-0.058,1.701-0.143L537.536,151.404z"/>
			</g>
		</g>
		<g>
			<path d="M528.649,173.934h-31.548v-8.676h31.548c1.426,0,2.586-1.162,2.586-2.59c0-1.426-1.16-2.587-2.586-2.587h-31.548v-8.676
				h31.548c6.21,0,11.263,5.052,11.263,11.263C539.912,168.879,534.859,173.934,528.649,173.934z"/>
		</g>
		<g>
			<path d="M521.865,187.413h-26.371v-8.676h26.371c1.304,0,2.366-1.062,2.366-2.366c0-1.305-1.062-2.367-2.366-2.367l-0.071-0.071
				h-26.3v-8.676h26.371l0.07,0.071c6.057,0.039,10.971,4.978,10.971,11.043C532.906,182.459,527.953,187.413,521.865,187.413z"/>
		</g>
		<g>
			<path d="M488.248,102.895c-3.431-5.786-8.149-7.471-8.675-7.644l-5.027,1.812l-22.931,36.466
				c-2.703,3.497-4.131,7.669-4.131,12.082c0,7.244,3.479,13.163,8.985,16.371c-0.735-3.999-1.431-8.961-1.431-12.962
				c0-4.298,1.877-8.573,4.444-11.704l19.992-31.793c0.438,0.489,0.886,1.083,1.31,1.799c3.074,5.18-0.158,11.467-1.189,13.215
				l-6.455,10.577l0.787,5.473c2.36,2.142,3.66,5.062,3.66,8.221c0,5.494-4.015,10.058-9.264,10.943
				c0.107,3.069,0.212,6.066,0.305,8.72c9.901-1.079,17.636-9.483,17.636-19.664c0-4.328-1.439-8.524-4.029-11.941l4.799-7.865
				C491.508,117.417,491.962,109.153,488.248,102.895z"/>
		</g>
	</g>
	<g>
		<g>
			<polygon points="524.497,123.151 517.864,111.1 522.824,100.672 520.66,85.386 568.68,85.386 568.68,124.92 599.866,156.527 
				606.276,150.67 577.355,121.361 577.355,76.709 510.671,76.709 513.867,99.303 508.117,111.39 515.978,125.667 516.911,138.762 
				528.484,150.067 534.547,143.86 525.331,134.859 			"/>
			<polygon points="650.282,195.269 622.959,167.578 616.549,173.435 641.734,198.959 642.105,209.129 636.761,230.775 
				606.719,232.67 596.539,210.199 583.493,210.199 575.015,201.724 564.787,201.724 562.578,210.4 571.423,210.4 579.901,218.875 
				590.945,218.875 601.287,241.706 643.66,239.033 650.819,210.028 			"/>
		</g>
		<g>
			<g>
				
					<rect x="512.766" y="99.707" transform="matrix(0.9031 0.4295 -0.4295 0.9031 94.1979 -212.1601)" width="8.675" height="5.783"/>
			</g>
			<g>
				<polygon points="511.979,118.404 508.117,111.39 511.558,104.158 519.393,107.884 517.864,111.1 519.581,114.22 				"/>
			</g>
			<g>
				<path d="M554.252,195.213l-0.066-0.119l-0.189,0.033l-0.096-0.552l-4.87-8.848l7.601-4.184l5.573,10.125l0.342,1.987
					l-7.947,1.367L554.252,195.213z M546.108,180.421l-5.844-10.615l7.602-4.185l5.843,10.615L546.108,180.421z M537.344,164.499
					l-5.844-10.614l7.602-4.185l5.844,10.614L537.344,164.499z M528.586,150.167l-8.668-8.467l6.063-6.207l8.668,8.467
					L528.586,150.167z M516.545,133.626l-0.567-7.96l-1.076-1.956l7.602-4.184l1.994,3.624l0.702,9.858L516.545,133.626z"/>
			</g>
			<polygon points="564.787,201.724 562.578,210.4 566.065,210.4 566.065,201.724 			"/>
			<g>
				<polygon points="578.566,217.542 570.151,209.129 572.415,206.865 572.415,201.724 575.015,201.724 584.701,211.405 				"/>
			</g>
			<g>
				<polygon points="592.273,221.617 590.987,218.875 587.958,218.875 587.958,210.199 596.498,210.199 600.128,217.93 				"/>
			</g>
			<g>
				
					<rect x="595.728" y="221.13" transform="matrix(0.4248 0.9053 -0.9053 0.4248 548.577 -412.4625)" width="6.29" height="8.675"/>
			</g>
			<g>
				
					<rect x="599.882" y="229.442" transform="matrix(0.4248 0.9053 -0.9053 0.4248 558.3611 -411.2142)" width="5.784" height="8.675"/>
			</g>
		</g>
	</g>
	<g>
		<g>
			<path d="M484.535,223.278l-30.587,6.197l-0.478-2.354l30.477-6.173c-0.65-2.747-1.132-5.527-1.106-8.435
				c0.001-0.069,0.015-0.131,0.02-0.198l-39.616,8.024l3.923,19.361l39.471-7.996C486.087,228.844,485.272,226.066,484.535,223.278z
				"/>
		</g>
		<g>
			<path d="M483.458,236.024l-5.163-25.487l35.15-7.417l5.163,25.487L483.458,236.024z M488.507,217.25l1.718,8.479l18.171-3.834
				l-1.718-8.479L488.507,217.25z"/>
		</g>
		<g>
			<path d="M526.593,234.761l-1.151-5.133c-1.267-5.648-3.893-6.372-6.04-6.372c-0.639,0-1.342,0.077-2.091,0.229l-5.364,1.088
				l-3.073-15.176l54.973-11.936L526.593,234.761z M519.401,217.472c2.782,0,7.293,0.92,10.049,6.243l16.408-16.43l-30.185,6.555
				l0.794,3.917C517.485,217.567,518.473,217.472,519.401,217.472z"/>
		</g>
		<g>
			
				<rect x="528.669" y="203.098" transform="matrix(0.6942 0.7197 -0.7197 0.6942 316.0917 -317.3493)" width="5.784" height="20.525"/>
		</g>
	</g>
	<g>
		<path d="M606.322,80.76v58.477h4.776c-0.007-0.176-0.018-0.355-0.018-0.514l-0.037-0.37c0-3.272,1.559-6.091,3.99-7.792h-0.036
			V89.436h10.936v40.916c2.546,1.633,4.14,4.483,4.14,8c0,0.272-0.014,0.571-0.036,0.884h4.573V80.76H606.322z"/>
		<g>
			<path d="M634.643,90.125h-8.676V78.76c0-3.034-2.467-5.501-5.499-5.501c-3.033,0-5.501,2.467-5.501,5.501v11.153h-8.676V78.76
				c0-7.817,6.359-14.177,14.177-14.177c7.815,0,14.175,6.36,14.175,14.177V90.125z"/>
		</g>
		<g>
			<path d="M624.579,173.925l-8.156-0.02c-0.981-2.726-9.513-26.657-9.678-34.943l-0.039-0.609c0-7.763,6.084-13.845,13.853-13.845
				c7.896,0,13.854,5.952,13.854,13.845C634.412,146.779,625.585,171.171,624.579,173.925z M615.385,138.167l0.034,0.555
				c0,3.245,2.436,11.919,5.11,20.278c2.724-8.421,5.206-17.222,5.206-20.648c0-3.14-2.032-5.168-5.177-5.168
				C617.669,133.184,615.476,135.313,615.385,138.167z"/>
		</g>
		<g>
			<rect x="614.562" y="96.321" width="11.809" height="5.784"/>
		</g>
		<g>
			<path fill="#FFFFFF" d="M616.221,156.142c1.354-0.46,2.802-0.708,4.31-0.708c1.491,0,2.923,0.243,4.262,0.692"/>
			<path d="M617.618,160.25l-2.794-8.214c3.643-1.239,7.693-1.248,11.347-0.023l-2.759,8.226
				C621.555,159.615,619.471,159.619,617.618,160.25z"/>
		</g>
		<g>
			<rect x="617.575" y="99.214" width="5.785" height="32.611"/>
		</g>
	</g>
</g>
<g>
	<g>
		<path d="M204.996,99.738c0.331,3.526,0.481,7.055,0.539,10.585c4.607-3.884,9.681-7.232,15.125-9.944v-9.584
			C215.102,93.22,209.856,96.228,204.996,99.738z"/>
		<g>
			<path d="M244.272,243.469c-24.393-3.258-45.154-18.149-56.501-38.898l-8.196,3.069c12.969,24.552,37.674,41.979,66.596,44.776
				C245.3,249.512,244.668,246.528,244.272,243.469z"/>
		</g>
	</g>
	<g>
		<g>
			<path d="M264.087,134.998h-30.302c-9.63,0-17.465-7.835-17.465-17.465V54.746c0-9.631,7.835-17.466,17.465-17.466h30.302
				c9.63,0,17.463,7.835,17.463,17.466v62.786C281.551,127.163,273.717,134.998,264.087,134.998z M233.785,45.957
				c-4.846,0-8.789,3.943-8.789,8.79v62.786c0,4.846,3.943,8.79,8.789,8.79h30.302c4.845,0,8.788-3.943,8.788-8.79V54.746
				c0-4.847-3.942-8.79-8.788-8.79H233.785z"/>
		</g>
		<g>
			<path d="M267.106,106.379h-36.344V51.722h36.344V106.379z M236.547,100.595h24.775V57.507h-24.775V100.595z"/>
		</g>
		<g>
			<circle cx="248.936" cy="116.098" r="6.115"/>
		</g>
	</g>
	<g>
		<g>
			<path d="M346.502,155.315l-14.571-0.004c-0.22,2.98-0.608,5.871-1.139,8.675l15.669,0.005c1.575,0.015,2.856,1.305,2.856,2.877
				s-1.281,2.862-2.816,2.876l-17.036,0.005c-0.4,1.468-0.828,2.918-1.308,4.333h-8.309v4.347l26.694-0.008
				c6.314-0.059,11.45-5.242,11.45-11.553C357.992,160.557,352.856,155.374,346.502,155.315z"/>
		</g>
		<g>
			<path d="M293.667,74.557l-5.613-1.725v59.781l-12.01,12.009l-0.011,3.931c3.249-1.085,6.656-1.461,10.091-1.741l10.606-10.605
				V85.133c18.317,9.338,31.092,35.104,31.092,64.2c0,7.046-0.957,13.898-2.847,20.411h-12.178
				c-0.952,3.111-2.798,5.826-4.396,8.676h22.864l0.999-2.944c2.809-8.28,4.233-17.076,4.233-26.143
				C336.498,113.057,318.885,82.309,293.667,74.557z"/>
		</g>
		<g>
			<line fill="#FFFFFF" x1="332.258" y1="174.09" x2="332.258" y2="185.735"/>
			<rect x="327.92" y="174.09" width="8.676" height="11.646"/>
		</g>
		<g>
			<line fill="#FFFFFF" x1="345.795" y1="174.09" x2="345.795" y2="185.735"/>
			<rect x="341.457" y="174.09" width="8.677" height="11.646"/>
		</g>
		<g>
			<line fill="#FFFFFF" x1="318.723" y1="174.09" x2="318.723" y2="185.735"/>
			<rect x="314.385" y="174.09" width="8.676" height="11.646"/>
		</g>
		<g>
			<path d="M253.516,268.647h-3.13l-6.994-21.059c-1.953-4.713-8.333-16.862-25.222-27.561c-3.992-2.529-8.05-4.924-11.973-7.241
				c-23.465-13.855-45.629-26.942-45.629-63.454c0-36.276,17.614-67.025,42.832-74.776l5.613-1.725v59.781l9.472,9.473H320.88v4.338
				c0,14.054-4.528,23.858-8.524,32.507c-3.006,6.508-5.603,12.128-5.603,18.329c0,10.442,1.185,15.106,4.74,23.744l9.5,20.617
				l-2.384,2.138C300.703,259.808,277.586,268.647,253.516,268.647z M253.268,249.797l3.361,10.12
				c19.742-0.687,38.626-7.898,53.78-20.536l-6.903-14.991c-3.828-9.287-5.428-15.109-5.428-27.13c0-8.108,3.11-14.839,6.402-21.966
				c3.329-7.207,6.757-14.627,7.552-24.531h-97.141l-14.555-14.556V85.133c-18.317,9.339-31.091,35.104-31.091,64.201
				c0,31.559,18.254,42.337,41.365,55.983c3.98,2.35,8.096,4.781,12.205,7.382c5.181,3.282,22.592,15.35,29.089,32.826l1.564,4.206
				L253.268,249.797z"/>
		</g>
		<g>
			<g>
				<rect x="174.177" y="180.435" width="62.466" height="5.784"/>
				<rect x="289.312" y="180.435" width="15.658" height="5.784"/>
			</g>
			<g>
				<path d="M292.204,207.075h-58.453v-47.498h58.453V207.075z M239.535,201.29h46.885v-35.929h-46.885V201.29z"/>
			</g>
			<g>
				<path d="M248.796,196.762c-0.25,0-0.504-0.021-0.759-0.066c-2.359-0.417-3.934-2.667-3.519-5.026l3.211-18.194
					c0.417-2.358,2.663-3.931,5.026-3.518c2.359,0.417,3.934,2.667,3.518,5.026l-3.211,18.194
					C252.691,195.282,250.861,196.762,248.796,196.762z"/>
			</g>
			<g>
				<path d="M261.377,196.762c-0.249,0-0.503-0.021-0.757-0.066c-2.36-0.416-3.936-2.666-3.519-5.026l3.209-18.194
					c0.417-2.359,2.667-3.932,5.025-3.519c2.36,0.416,3.935,2.666,3.52,5.026l-3.21,18.194
					C265.274,195.282,263.443,196.762,261.377,196.762z"/>
			</g>
			<g>
				<path d="M273.958,196.762c-0.25,0-0.504-0.021-0.759-0.066c-2.359-0.417-3.934-2.667-3.518-5.026l3.211-18.194
					c0.417-2.358,2.659-3.931,5.026-3.518c2.359,0.417,3.934,2.667,3.518,5.026l-3.211,18.194
					C277.853,195.282,276.023,196.762,273.958,196.762z"/>
			</g>
		</g>
		<g>
			<path d="M269.784,265.525l-3.636-7.845c-4.806-9.498-1.052-21.211,8.385-26.134c9.459-4.933,21.232-1.28,26.255,8.134
				l0.072,0.144l3.66,7.894l-5.248,2.433l-3.625-7.817c-3.556-6.577-11.811-9.117-18.44-5.66c-6.652,3.47-9.29,11.737-5.88,18.428
				l0.047,0.097l3.658,7.894L269.784,265.525z"/>
		</g>
	</g>
</g>
</svg>
